<?xml version="1.0" standalone="no"?><!DOCTYPE svg PUBLIC "-//W3C//DTD SVG 1.1//EN" "http://www.w3.org/Graphics/SVG/1.1/DTD/svg11.dtd"><svg t="1709089010474" class="icon" viewBox="0 0 1024 1024" version="1.1" xmlns="http://www.w3.org/2000/svg" p-id="3159" xmlns:xlink="http://www.w3.org/1999/xlink" width="128" height="128"><path d="M857.6 768h-100.266667c-12.8 0-21.333333-8.533333-21.333333-21.333333s8.533333-21.333333 21.333333-21.333334h100.266667c21.333333 0 38.4-17.066667 38.4-38.4V166.4c0-21.333333-17.066667-38.4-38.4-38.4H337.066667c-21.333333 0-38.4 17.066667-38.4 38.4v98.133333c0 12.8-8.533333 21.333333-21.333334 21.333334s-21.333333-8.533333-21.333333-21.333334V166.4C256 121.6 292.266667 85.333333 337.066667 85.333333h520.533333C902.4 85.333333 938.666667 121.6 938.666667 166.4v520.533333c0 44.8-36.266667 81.066667-81.066667 81.066667z" p-id="3160"></path><path d="M686.933333 938.666667H166.4C121.6 938.666667 85.333333 902.4 85.333333 857.6V337.066667C85.333333 292.266667 121.6 256 166.4 256h520.533333c44.8 0 81.066667 36.266667 81.066667 81.066667v520.533333c0 44.8-36.266667 81.066667-81.066667 81.066667zM166.4 298.666667c-21.333333 0-38.4 17.066667-38.4 38.4v520.533333c0 21.333333 17.066667 38.4 38.4 38.4h520.533333c21.333333 0 38.4-17.066667 38.4-38.4V337.066667c0-21.333333-17.066667-38.4-38.4-38.4H166.4z" p-id="3161"></path></svg>