<?xml version="1.0" encoding="UTF-8"?>
<svg width="16px" height="16px" viewBox="0 0 16 16" version="1.1" xmlns="http://www.w3.org/2000/svg" xmlns:xlink="http://www.w3.org/1999/xlink">
    <title>icon_tree_add</title>
    <defs>
        <rect id="path-1" x="0" y="0" width="16" height="16"></rect>
    </defs>
    <g id="页面-1" stroke="none" stroke-width="1" fill="none" fill-rule="evenodd">
        <g id="切图" transform="translate(-46, -456)">
            <g id="icon_tree_add" transform="translate(46, 456)">
                <mask id="mask-2" fill="white">
                    <use xlink:href="#path-1"></use>
                </mask>
                <g id="矩形"></g>
                <path d="M12,9.33333333 C12,8.96513333 11.7015333,8.66666667 11.3333333,8.66666667 C10.9651333,8.66666667 10.6666667,8.96513333 10.6666667,9.33333333 C10.6666667,9.33333333 12,9.33333333 12,9.33333333 C12,9.33333333 12,9.33333333 12,9.33333333 Z M10.6666667,13.3333333 C10.6666667,13.7015333 10.9651333,14 11.3333333,14 C11.7015333,14 12,13.7015333 12,13.3333333 C12,13.3333333 10.6666667,13.3333333 10.6666667,13.3333333 C10.6666667,13.3333333 10.6666667,13.3333333 10.6666667,13.3333333 Z M9.33333333,10.6666667 C8.96513333,10.6666667 8.66666667,10.9651333 8.66666667,11.3333333 C8.66666667,11.7015333 8.96513333,12 9.33333333,12 C9.33333333,12 9.33333333,10.6666667 9.33333333,10.6666667 C9.33333333,10.6666667 9.33333333,10.6666667 9.33333333,10.6666667 Z M13.3333333,12 C13.7015333,12 14,11.7015333 14,11.3333333 C14,10.9651333 13.7015333,10.6666667 13.3333333,10.6666667 C13.3333333,10.6666667 13.3333333,12 13.3333333,12 C13.3333333,12 13.3333333,12 13.3333333,12 Z M4,3.33333333 C4,3.33333333 5.33333333,3.33333333 5.33333333,3.33333333 C5.33333333,3.33333333 5.33333333,2 5.33333333,2 C5.33333333,2 4,2 4,2 C4,2 4,3.33333333 4,3.33333333 C4,3.33333333 4,3.33333333 4,3.33333333 Z M6,4 C6,4 6,5.33333333 6,5.33333333 C6,5.33333333 7.33333333,5.33333333 7.33333333,5.33333333 C7.33333333,5.33333333 7.33333333,4 7.33333333,4 C7.33333333,4 6,4 6,4 C6,4 6,4 6,4 Z M5.33333333,6 C5.33333333,6 4,6 4,6 C4,6 4,7.33333333 4,7.33333333 C4,7.33333333 5.33333333,7.33333333 5.33333333,7.33333333 C5.33333333,7.33333333 5.33333333,6 5.33333333,6 C5.33333333,6 5.33333333,6 5.33333333,6 Z M3.33333333,5.33333333 C3.33333333,5.33333333 3.33333333,4 3.33333333,4 C3.33333333,4 2,4 2,4 C2,4 2,5.33333333 2,5.33333333 C2,5.33333333 3.33333333,5.33333333 3.33333333,5.33333333 C3.33333333,5.33333333 3.33333333,5.33333333 3.33333333,5.33333333 Z M4,6 C3.63181333,6 3.33333333,5.70152 3.33333333,5.33333333 C3.33333333,5.33333333 2,5.33333333 2,5.33333333 C2,6.4379 2.89543333,7.33333333 4,7.33333333 C4,7.33333333 4,6 4,6 C4,6 4,6 4,6 Z M6,5.33333333 C6,5.70152 5.70152,6 5.33333333,6 C5.33333333,6 5.33333333,7.33333333 5.33333333,7.33333333 C6.4379,7.33333333 7.33333333,6.4379 7.33333333,5.33333333 C7.33333333,5.33333333 6,5.33333333 6,5.33333333 C6,5.33333333 6,5.33333333 6,5.33333333 Z M5.33333333,3.33333333 C5.70152,3.33333333 6,3.63181333 6,4 C6,4 7.33333333,4 7.33333333,4 C7.33333333,2.89543333 6.4379,2 5.33333333,2 C5.33333333,2 5.33333333,3.33333333 5.33333333,3.33333333 C5.33333333,3.33333333 5.33333333,3.33333333 5.33333333,3.33333333 Z M4,2 C2.89543333,2 2,2.89543333 2,4 C2,4 3.33333333,4 3.33333333,4 C3.33333333,3.63181333 3.63181333,3.33333333 4,3.33333333 C4,3.33333333 4,2 4,2 C4,2 4,2 4,2 Z M10.6666667,3.33333333 C10.6666667,3.33333333 12,3.33333333 12,3.33333333 C12,3.33333333 12,2 12,2 C12,2 10.6666667,2 10.6666667,2 C10.6666667,2 10.6666667,3.33333333 10.6666667,3.33333333 C10.6666667,3.33333333 10.6666667,3.33333333 10.6666667,3.33333333 Z M12.6666667,4 C12.6666667,4 12.6666667,5.33333333 12.6666667,5.33333333 C12.6666667,5.33333333 14,5.33333333 14,5.33333333 C14,5.33333333 14,4 14,4 C14,4 12.6666667,4 12.6666667,4 C12.6666667,4 12.6666667,4 12.6666667,4 Z M12,6 C12,6 10.6666667,6 10.6666667,6 C10.6666667,6 10.6666667,7.33333333 10.6666667,7.33333333 C10.6666667,7.33333333 12,7.33333333 12,7.33333333 C12,7.33333333 12,6 12,6 C12,6 12,6 12,6 Z M10,5.33333333 C10,5.33333333 10,4 10,4 C10,4 8.66666667,4 8.66666667,4 C8.66666667,4 8.66666667,5.33333333 8.66666667,5.33333333 C8.66666667,5.33333333 10,5.33333333 10,5.33333333 C10,5.33333333 10,5.33333333 10,5.33333333 Z M10.6666667,6 C10.2984667,6 10,5.70152 10,5.33333333 C10,5.33333333 8.66666667,5.33333333 8.66666667,5.33333333 C8.66666667,6.4379 9.56206667,7.33333333 10.6666667,7.33333333 C10.6666667,7.33333333 10.6666667,6 10.6666667,6 C10.6666667,6 10.6666667,6 10.6666667,6 Z M12.6666667,5.33333333 C12.6666667,5.70152 12.3682,6 12,6 C12,6 12,7.33333333 12,7.33333333 C13.1046,7.33333333 14,6.4379 14,5.33333333 C14,5.33333333 12.6666667,5.33333333 12.6666667,5.33333333 C12.6666667,5.33333333 12.6666667,5.33333333 12.6666667,5.33333333 Z M12,3.33333333 C12.3682,3.33333333 12.6666667,3.63181333 12.6666667,4 C12.6666667,4 14,4 14,4 C14,2.89543333 13.1046,2 12,2 C12,2 12,3.33333333 12,3.33333333 C12,3.33333333 12,3.33333333 12,3.33333333 Z M10.6666667,2 C9.56206667,2 8.66666667,2.89543333 8.66666667,4 C8.66666667,4 10,4 10,4 C10,3.63181333 10.2984667,3.33333333 10.6666667,3.33333333 C10.6666667,3.33333333 10.6666667,2 10.6666667,2 C10.6666667,2 10.6666667,2 10.6666667,2 Z M4,10 C4,10 5.33333333,10 5.33333333,10 C5.33333333,10 5.33333333,8.66666667 5.33333333,8.66666667 C5.33333333,8.66666667 4,8.66666667 4,8.66666667 C4,8.66666667 4,10 4,10 C4,10 4,10 4,10 Z M6,10.6666667 C6,10.6666667 6,12 6,12 C6,12 7.33333333,12 7.33333333,12 C7.33333333,12 7.33333333,10.6666667 7.33333333,10.6666667 C7.33333333,10.6666667 6,10.6666667 6,10.6666667 C6,10.6666667 6,10.6666667 6,10.6666667 Z M5.33333333,12.6666667 C5.33333333,12.6666667 4,12.6666667 4,12.6666667 C4,12.6666667 4,14 4,14 C4,14 5.33333333,14 5.33333333,14 C5.33333333,14 5.33333333,12.6666667 5.33333333,12.6666667 C5.33333333,12.6666667 5.33333333,12.6666667 5.33333333,12.6666667 Z M3.33333333,12 C3.33333333,12 3.33333333,10.6666667 3.33333333,10.6666667 C3.33333333,10.6666667 2,10.6666667 2,10.6666667 C2,10.6666667 2,12 2,12 C2,12 3.33333333,12 3.33333333,12 C3.33333333,12 3.33333333,12 3.33333333,12 Z M4,12.6666667 C3.63181333,12.6666667 3.33333333,12.3682 3.33333333,12 C3.33333333,12 2,12 2,12 C2,13.1046 2.89543333,14 4,14 C4,14 4,12.6666667 4,12.6666667 C4,12.6666667 4,12.6666667 4,12.6666667 Z M6,12 C6,12.3682 5.70152,12.6666667 5.33333333,12.6666667 C5.33333333,12.6666667 5.33333333,14 5.33333333,14 C6.4379,14 7.33333333,13.1046 7.33333333,12 C7.33333333,12 6,12 6,12 C6,12 6,12 6,12 Z M5.33333333,10 C5.70152,10 6,10.2984667 6,10.6666667 C6,10.6666667 7.33333333,10.6666667 7.33333333,10.6666667 C7.33333333,9.56206667 6.4379,8.66666667 5.33333333,8.66666667 C5.33333333,8.66666667 5.33333333,10 5.33333333,10 C5.33333333,10 5.33333333,10 5.33333333,10 Z M4,8.66666667 C2.89543333,8.66666667 2,9.56206667 2,10.6666667 C2,10.6666667 3.33333333,10.6666667 3.33333333,10.6666667 C3.33333333,10.2984667 3.63181333,10 4,10 C4,10 4,8.66666667 4,8.66666667 C4,8.66666667 4,8.66666667 4,8.66666667 Z M10.6666667,9.33333333 C10.6666667,9.33333333 10.6666667,13.3333333 10.6666667,13.3333333 C10.6666667,13.3333333 12,13.3333333 12,13.3333333 C12,13.3333333 12,9.33333333 12,9.33333333 C12,9.33333333 10.6666667,9.33333333 10.6666667,9.33333333 C10.6666667,9.33333333 10.6666667,9.33333333 10.6666667,9.33333333 Z M9.33333333,12 C9.33333333,12 13.3333333,12 13.3333333,12 C13.3333333,12 13.3333333,10.6666667 13.3333333,10.6666667 C13.3333333,10.6666667 9.33333333,10.6666667 9.33333333,10.6666667 C9.33333333,10.6666667 9.33333333,12 9.33333333,12 C9.33333333,12 9.33333333,12 9.33333333,12 Z" id="形状" fill="#1D2129" fill-rule="nonzero" mask="url(#mask-2)"></path>
            </g>
        </g>
    </g>
</svg>