<?xml version="1.0" encoding="UTF-8"?>
<svg width="16px" height="16px" viewBox="0 0 16 16" version="1.1" xmlns="http://www.w3.org/2000/svg" xmlns:xlink="http://www.w3.org/1999/xlink">
    <title>icon_delete</title>
    <defs>
        <rect id="path-1" x="0" y="0" width="16" height="16"></rect>
        <rect id="path-3" x="0" y="0" width="14" height="14"></rect>
    </defs>
    <g id="页面-1" stroke="none" stroke-width="1" fill="none" fill-rule="evenodd">
        <g id="切图" transform="translate(-98, -456)">
            <g id="icon_delete" transform="translate(98, 456)">
                <mask id="mask-2" fill="white">
                    <use xlink:href="#path-1"></use>
                </mask>
                <g id="矩形"></g>
                <g id="编组" mask="url(#mask-2)">
                    <g transform="translate(1, 1)">
                        <mask id="mask-4" fill="white">
                            <use xlink:href="#path-3"></use>
                        </mask>
                        <g id="矩形" stroke="none" fill="none"></g>
                        <path d="M11.6652083,4.12489583 C11.6881333,3.80354917 11.446225,3.52443583 11.1248667,3.50148167 C10.8035667,3.4785275 10.5244417,3.72042417 10.5014583,4.04177083 C10.5014583,4.04177083 11.6652083,4.12489583 11.6652083,4.12489583 C11.6652083,4.12489583 11.6652083,4.12489583 11.6652083,4.12489583 Z M10.5774083,11.1664583 C10.5774083,11.1664583 9.99553333,11.1248667 9.99553333,11.1248667 C9.99553333,11.1248667 10.5774083,11.1664583 10.5774083,11.1664583 C10.5774083,11.1664583 10.5774083,11.1664583 10.5774083,11.1664583 Z M3.42260333,11.1664583 C3.42260333,11.1664583 4.004455,11.1248667 4.004455,11.1248667 C4.004455,11.1248667 3.42260333,11.1664583 3.42260333,11.1664583 C3.42260333,11.1664583 3.42260333,11.1664583 3.42260333,11.1664583 Z M3.49851833,4.04177083 C3.47556417,3.72042417 3.19645083,3.4785275 2.87510417,3.50148167 C2.5537575,3.52443583 2.31186258,3.80354917 2.334815,4.12489583 C2.334815,4.12489583 3.49851833,4.04177083 3.49851833,4.04177083 C3.49851833,4.04177083 3.49851833,4.04177083 3.49851833,4.04177083 Z M6.41666667,6.41666667 C6.41666667,6.09450333 6.15549667,5.83333333 5.83333333,5.83333333 C5.51117,5.83333333 5.25,6.09450333 5.25,6.41666667 C5.25,6.41666667 6.41666667,6.41666667 6.41666667,6.41666667 C6.41666667,6.41666667 6.41666667,6.41666667 6.41666667,6.41666667 Z M5.25,9.91666667 C5.25,10.2388417 5.51117,10.5 5.83333333,10.5 C6.15549667,10.5 6.41666667,10.2388417 6.41666667,9.91666667 C6.41666667,9.91666667 5.25,9.91666667 5.25,9.91666667 C5.25,9.91666667 5.25,9.91666667 5.25,9.91666667 Z M8.75,6.41666667 C8.75,6.09450333 8.48884167,5.83333333 8.16666667,5.83333333 C7.84449167,5.83333333 7.58333333,6.09450333 7.58333333,6.41666667 C7.58333333,6.41666667 8.75,6.41666667 8.75,6.41666667 C8.75,6.41666667 8.75,6.41666667 8.75,6.41666667 Z M7.58333333,9.91666667 C7.58333333,10.2388417 7.84449167,10.5 8.16666667,10.5 C8.48884167,10.5 8.75,10.2388417 8.75,9.91666667 C8.75,9.91666667 7.58333333,9.91666667 7.58333333,9.91666667 C7.58333333,9.91666667 7.58333333,9.91666667 7.58333333,9.91666667 Z M8.16666667,4.08333333 C8.16666667,4.40549667 8.427825,4.66666667 8.75,4.66666667 C9.072175,4.66666667 9.33333333,4.40549667 9.33333333,4.08333333 C9.33333333,4.08333333 8.16666667,4.08333333 8.16666667,4.08333333 C8.16666667,4.08333333 8.16666667,4.08333333 8.16666667,4.08333333 Z M4.66666667,4.08333333 C4.66666667,4.40549667 4.92783667,4.66666667 5.25,4.66666667 C5.57216333,4.66666667 5.83333333,4.40549667 5.83333333,4.08333333 C5.83333333,4.08333333 4.66666667,4.08333333 4.66666667,4.08333333 C4.66666667,4.08333333 4.66666667,4.08333333 4.66666667,4.08333333 Z M2.33333333,3.5 C2.01116708,3.5 1.75,3.76117 1.75,4.08333333 C1.75,4.40549667 2.01116708,4.66666667 2.33333333,4.66666667 C2.33333333,4.66666667 2.33333333,3.5 2.33333333,3.5 C2.33333333,3.5 2.33333333,3.5 2.33333333,3.5 Z M11.6666667,4.66666667 C11.9888417,4.66666667 12.25,4.40549667 12.25,4.08333333 C12.25,3.76117 11.9888417,3.5 11.6666667,3.5 C11.6666667,3.5 11.6666667,4.66666667 11.6666667,4.66666667 C11.6666667,4.66666667 11.6666667,4.66666667 11.6666667,4.66666667 Z M10.5014583,4.04177083 C10.5014583,4.04177083 9.99553333,11.1248667 9.99553333,11.1248667 C9.99553333,11.1248667 11.159225,11.2079917 11.159225,11.2079917 C11.159225,11.2079917 11.6652083,4.12489583 11.6652083,4.12489583 C11.6652083,4.12489583 10.5014583,4.04177083 10.5014583,4.04177083 C10.5014583,4.04177083 10.5014583,4.04177083 10.5014583,4.04177083 Z M9.41371667,11.6666667 C9.41371667,11.6666667 4.58630667,11.6666667 4.58630667,11.6666667 C4.58630667,11.6666667 4.58630667,12.8333333 4.58630667,12.8333333 C4.58630667,12.8333333 9.41371667,12.8333333 9.41371667,12.8333333 C9.41371667,12.8333333 9.41371667,11.6666667 9.41371667,11.6666667 C9.41371667,11.6666667 9.41371667,11.6666667 9.41371667,11.6666667 Z M4.004455,11.1248667 C4.004455,11.1248667 3.49851833,4.04177083 3.49851833,4.04177083 C3.49851833,4.04177083 2.334815,4.12489583 2.334815,4.12489583 C2.334815,4.12489583 2.84075167,11.2079917 2.84075167,11.2079917 C2.84075167,11.2079917 4.004455,11.1248667 4.004455,11.1248667 C4.004455,11.1248667 4.004455,11.1248667 4.004455,11.1248667 Z M4.58630667,11.6666667 C4.28026667,11.6666667 4.02626,11.4301833 4.004455,11.1248667 C4.004455,11.1248667 2.84075167,11.2079917 2.84075167,11.2079917 C2.90616667,12.123825 3.66818667,12.8333333 4.58630667,12.8333333 C4.58630667,12.8333333 4.58630667,11.6666667 4.58630667,11.6666667 C4.58630667,11.6666667 4.58630667,11.6666667 4.58630667,11.6666667 Z M9.99553333,11.1248667 C9.97371667,11.4301833 9.71973333,11.6666667 9.41371667,11.6666667 C9.41371667,11.6666667 9.41371667,12.8333333 9.41371667,12.8333333 C10.331825,12.8333333 11.0938333,12.123825 11.159225,11.2079917 C11.159225,11.2079917 9.99553333,11.1248667 9.99553333,11.1248667 C9.99553333,11.1248667 9.99553333,11.1248667 9.99553333,11.1248667 Z M5.25,6.41666667 C5.25,6.41666667 5.25,9.91666667 5.25,9.91666667 C5.25,9.91666667 6.41666667,9.91666667 6.41666667,9.91666667 C6.41666667,9.91666667 6.41666667,6.41666667 6.41666667,6.41666667 C6.41666667,6.41666667 5.25,6.41666667 5.25,6.41666667 C5.25,6.41666667 5.25,6.41666667 5.25,6.41666667 Z M7.58333333,6.41666667 C7.58333333,6.41666667 7.58333333,9.91666667 7.58333333,9.91666667 C7.58333333,9.91666667 8.75,9.91666667 8.75,9.91666667 C8.75,9.91666667 8.75,6.41666667 8.75,6.41666667 C8.75,6.41666667 7.58333333,6.41666667 7.58333333,6.41666667 C7.58333333,6.41666667 7.58333333,6.41666667 7.58333333,6.41666667 Z M5.83333333,2.33333333 C5.83333333,2.33333333 8.16666667,2.33333333 8.16666667,2.33333333 C8.16666667,2.33333333 8.16666667,1.16666667 8.16666667,1.16666667 C8.16666667,1.16666667 5.83333333,1.16666667 5.83333333,1.16666667 C5.83333333,1.16666667 5.83333333,2.33333333 5.83333333,2.33333333 C5.83333333,2.33333333 5.83333333,2.33333333 5.83333333,2.33333333 Z M8.16666667,2.33333333 C8.16666667,2.33333333 8.16666667,4.08333333 8.16666667,4.08333333 C8.16666667,4.08333333 9.33333333,4.08333333 9.33333333,4.08333333 C9.33333333,4.08333333 9.33333333,2.33333333 9.33333333,2.33333333 C9.33333333,2.33333333 8.16666667,2.33333333 8.16666667,2.33333333 C8.16666667,2.33333333 8.16666667,2.33333333 8.16666667,2.33333333 Z M5.83333333,4.08333333 C5.83333333,4.08333333 5.83333333,2.33333333 5.83333333,2.33333333 C5.83333333,2.33333333 4.66666667,2.33333333 4.66666667,2.33333333 C4.66666667,2.33333333 4.66666667,4.08333333 4.66666667,4.08333333 C4.66666667,4.08333333 5.83333333,4.08333333 5.83333333,4.08333333 C5.83333333,4.08333333 5.83333333,4.08333333 5.83333333,4.08333333 Z M8.16666667,2.33333333 C8.16666667,2.33333333 9.33333333,2.33333333 9.33333333,2.33333333 C9.33333333,1.68900142 8.81101667,1.16666667 8.16666667,1.16666667 C8.16666667,1.16666667 8.16666667,2.33333333 8.16666667,2.33333333 C8.16666667,2.33333333 8.16666667,2.33333333 8.16666667,2.33333333 Z M5.83333333,1.16666667 C5.18900083,1.16666667 4.66666667,1.68900142 4.66666667,2.33333333 C4.66666667,2.33333333 5.83333333,2.33333333 5.83333333,2.33333333 C5.83333333,2.33333333 5.83333333,1.16666667 5.83333333,1.16666667 C5.83333333,1.16666667 5.83333333,1.16666667 5.83333333,1.16666667 Z M2.33333333,4.66666667 C2.33333333,4.66666667 11.6666667,4.66666667 11.6666667,4.66666667 C11.6666667,4.66666667 11.6666667,3.5 11.6666667,3.5 C11.6666667,3.5 2.33333333,3.5 2.33333333,3.5 C2.33333333,3.5 2.33333333,4.66666667 2.33333333,4.66666667 C2.33333333,4.66666667 2.33333333,4.66666667 2.33333333,4.66666667 Z" id="形状" stroke="none" fill="#1D2129" fill-rule="nonzero" mask="url(#mask-4)"></path>
                    </g>
                </g>
            </g>
        </g>
    </g>
</svg>