<?xml version="1.0" encoding="UTF-8"?>
<svg width="16px" height="16px" viewBox="0 0 16 16" version="1.1" xmlns="http://www.w3.org/2000/svg" xmlns:xlink="http://www.w3.org/1999/xlink">
                    <g transform="translate(1, 1)" id="形状">
                        <path d="M9.34318,0 C9.52889,0 9.70704,0.073759 9.83836,0.2051336 C9.83836,0.2051336 12.39511,2.76297 12.39511,2.76297 C12.66832,3.036313 12.66832,3.479357 12.39511,3.7527 C12.39511,3.7527 5.156102,10.9949 5.156102,10.9949 C5.024817,11.12622 4.846723,11.2 4.66102,11.2 C4.66102,11.2 2.1,11.2 2.1,11.2 C1.713404,11.2 1.4,10.88661 1.4,10.5 C1.4,10.5 1.4,7.952 1.4,7.952 C1.4,7.76643 1.473633,7.58856 1.604729,7.45731 C1.604729,7.45731 8.848,0.2053219 8.848,0.2053219 C8.97925,0.0738976 9.1574,0 9.34318,0 C9.34318,0 9.34318,0 9.34318,0 Z M9.34346,1.690353 C9.34346,1.690353 2.8,8.24166 2.8,8.24166 C2.8,8.24166 2.8,9.8 2.8,9.8 C2.8,9.8 4.370982,9.8 4.370982,9.8 C4.370982,9.8 10.91027,3.257835 10.91027,3.257835 C10.91027,3.257835 9.34346,1.690353 9.34346,1.690353 C9.34346,1.690353 9.34346,1.690353 9.34346,1.690353 Z M0,13.3 C0,12.91339 0.3134005,12.6 0.7,12.6 C0.7,12.6 13.3,12.6 13.3,12.6 C13.68661,12.6 14,12.91339 14,13.3 C14,13.68661 13.68661,14 13.3,14 C13.3,14 0.7,14 0.7,14 C0.3134005,14 0,13.68661 0,13.3 C0,13.3 0,13.3 0,13.3 Z"></path>
                    </g>
</svg>