<?xml version="1.0" encoding="UTF-8"?>
<svg width="16px" height="16px" viewBox="0 0 16 16" version="1.1" xmlns="http://www.w3.org/2000/svg" xmlns:xlink="http://www.w3.org/1999/xlink">
                    <g transform="translate(1, 1)" id="形状">
                        <path d="M11.4545455,1.27272727 C11.4545455,0.569825455 12.0243455,0 12.7272727,0 C13.4302,0 14,0.569825455 14,1.27272727 C14,1.97562909 13.4302,2.54545455 12.7272727,2.54545455 C12.0243455,2.54545455 11.4545455,1.97562909 11.4545455,1.27272727 C11.4545455,1.27272727 11.4545455,1.27272727 11.4545455,1.27272727 Z M5.09090909,1.27272727 C5.09090909,0.921276364 5.37582182,0.636363636 5.72727273,0.636363636 C5.72727273,0.636363636 9.54545455,0.636363636 9.54545455,0.636363636 C9.89691818,0.636363636 10.1818182,0.921276364 10.1818182,1.27272727 C10.1818182,1.62417818 9.89691818,1.90909091 9.54545455,1.90909091 C9.54545455,1.90909091 6.36363636,1.90909091 6.36363636,1.90909091 C6.36363636,1.90909091 6.36363636,6.36363636 6.36363636,6.36363636 C6.36363636,6.36363636 9.54545455,6.36363636 9.54545455,6.36363636 C9.89691818,6.36363636 10.1818182,6.64853636 10.1818182,7 C10.1818182,7.35146364 9.89691818,7.63636364 9.54545455,7.63636364 C9.54545455,7.63636364 6.36363636,7.63636364 6.36363636,7.63636364 C6.36363636,7.63636364 6.36363636,12.0909091 6.36363636,12.0909091 C6.36363636,12.0909091 9.54545455,12.0909091 9.54545455,12.0909091 C9.89691818,12.0909091 10.1818182,12.3758091 10.1818182,12.7272727 C10.1818182,13.0787364 9.89691818,13.3636364 9.54545455,13.3636364 C9.54545455,13.3636364 5.72727273,13.3636364 5.72727273,13.3636364 C5.37582182,13.3636364 5.09090909,13.0787364 5.09090909,12.7272727 C5.09090909,12.7272727 5.09090909,7.63636364 5.09090909,7.63636364 C5.09090909,7.63636364 3.70954818,7.63636364 3.70954818,7.63636364 C3.44746818,8.37785455 2.74030909,8.90909091 1.90909091,8.90909091 C0.854725455,8.90909091 0,8.05432727 0,7 C0,5.94565364 0.854725455,5.09090909 1.90909091,5.09090909 C2.74030909,5.09090909 3.44746818,5.62215818 3.70954818,6.36363636 C3.70954818,6.36363636 5.09090909,6.36363636 5.09090909,6.36363636 C5.09090909,6.36363636 5.09090909,1.27272727 5.09090909,1.27272727 C5.09090909,1.27272727 5.09090909,1.27272727 5.09090909,1.27272727 Z M1.90909091,6.36363636 C1.55764,6.36363636 1.27272727,6.64853636 1.27272727,7 C1.27272727,7.35146364 1.55764,7.63636364 1.90909091,7.63636364 C2.26053545,7.63636364 2.54545455,7.35146364 2.54545455,7 C2.54545455,6.64853636 2.26053545,6.36363636 1.90909091,6.36363636 C1.90909091,6.36363636 1.90909091,6.36363636 1.90909091,6.36363636 Z M11.4545455,7 C11.4545455,6.29708545 12.0243455,5.72727273 12.7272727,5.72727273 C13.4302,5.72727273 14,6.29708545 14,7 C14,7.70292727 13.4302,8.27272727 12.7272727,8.27272727 C12.0243455,8.27272727 11.4545455,7.70292727 11.4545455,7 C11.4545455,7 11.4545455,7 11.4545455,7 Z M11.4545455,12.7272727 C11.4545455,12.0243455 12.0243455,11.4545455 12.7272727,11.4545455 C13.4302,11.4545455 14,12.0243455 14,12.7272727 C14,13.4302 13.4302,14 12.7272727,14 C12.0243455,14 11.4545455,13.4302 11.4545455,12.7272727 C11.4545455,12.7272727 11.4545455,12.7272727 11.4545455,12.7272727 Z"></path>
                    </g>
</svg>