<?xml version="1.0" encoding="UTF-8"?>
<svg width="16px" height="16px" viewBox="0 0 16 16" version="1.1" xmlns="http://www.w3.org/2000/svg" xmlns:xlink="http://www.w3.org/1999/xlink">
        <g id="切图" transform="translate(-46, -93)">
            <g id="icon_product_normal" transform="translate(46, 93)">
                <rect id="矩形" fill="#D8D8D8" opacity="0" x="0" y="0" width="16" height="16"></rect>
                <path d="M7.79205612,1.03659055 C7.9267743,0.98780315 8.07320157,0.98780315 8.20791975,1.03659055 L14.5715561,3.34136001 C14.8271198,3.43392001 14.9989379,3.68559335 15.0000243,3.96888668 C15.0010379,4.25218001 14.8310652,4.50522001 14.5761379,4.59982668 L8.21250157,6.96172668 C8.07504702,7.01276001 7.92499248,7.01276001 7.7874743,6.96172668 L1.42385448,4.59982668 C1.16895902,4.50522001 0.998974531,4.25218001 1.00000216,3.96888668 C1.00103915,3.68559335 1.17286248,3.43392001 1.42844012,3.34136001 L7.79205612,1.03659055 Z M3.56270702,3.97914001 L8.00001975,5.62606668 L12.4373198,3.97914001 L8.00001975,2.37204668 L3.56270702,3.97914001 Z M1.03572866,6.44643334 C1.15183193,6.09891334 1.51486593,5.91579334 1.84658702,6.03742668 L8.00001975,8.29366667 L14.1534016,6.03742668 C14.4851379,5.91579334 14.8481834,6.09891334 14.9642561,6.44643334 C15.0803925,6.79395334 14.9055834,7.17427334 14.573847,7.29590668 L8.21021066,9.62926667 C8.07415612,9.67913334 7.92588339,9.67913334 7.78976521,9.62926667 L1.42614284,7.29590668 C1.09441984,7.17427334 0.919626025,6.79395334 1.03572866,6.44643334 Z M1.84658702,8.70406667 C1.51486593,8.58246667 1.15183193,8.76560001 1.03572866,9.11306667 C0.919626025,9.46060001 1.09441984,9.84093334 1.42614284,9.96260001 L7.78976521,12.2959333 C7.92588339,12.3458 8.07415612,12.3458 8.21021066,12.2959333 L14.573847,9.96260001 C14.9055834,9.84093334 15.0803925,9.46060001 14.9642561,9.11306667 C14.8481834,8.76560001 14.4851379,8.58246667 14.1534016,8.70406667 L8.00001975,10.9603333 L1.84658702,8.70406667 Z M1.84658702,11.3707333 C1.51486593,11.2491333 1.15183193,11.4322667 1.03572866,11.7797333 C0.919626025,12.1272667 1.09441984,12.5076 1.42614284,12.6292667 L7.78976521,14.9626 C7.92588339,15.0124667 8.07415612,15.0124667 8.21021066,14.9626 L14.573847,12.6292667 C14.9055834,12.5076 15.0803925,12.1272667 14.9642561,11.7797333 C14.8481834,11.4322667 14.4851379,11.2491333 14.1534016,11.3707333 L8.00001975,13.627 L1.84658702,11.3707333 Z" id="形状" fill="#4E5969"></path>
            </g>
    </g>
</svg>