<?xml version="1.0" encoding="UTF-8"?>
<svg width="16px" height="16px" viewBox="0 0 16 16" version="1.1" xmlns="http://www.w3.org/2000/svg" xmlns:xlink="http://www.w3.org/1999/xlink">
                <g id="编组" transform="translate(1, 1)">
                    <path d="M1.4,0 C1.4,0 4.9,0 4.9,0 C5.673199,0 6.3,0.626801 6.3,1.4 C6.3,1.4 6.3,4.9 6.3,4.9 C6.3,5.673199 5.673199,6.3 4.9,6.3 C4.9,6.3 1.4,6.3 1.4,6.3 C0.626801,6.3 0,5.673199 0,4.9 C0,4.9 0,1.4 0,1.4 C0,0.626801 0.626801,0 1.4,0 Z M1.4,1.4 C1.4,1.4 1.4,4.9 1.4,4.9 C1.4,4.9 4.9,4.9 4.9,4.9 C4.9,4.9 4.9,1.4 4.9,1.4 C4.9,1.4 1.4,1.4 1.4,1.4 Z M9.1,0 C9.1,0 12.6,0 12.6,0 C13.37322,0 14,0.626801 14,1.4 C14,1.4 14,4.9 14,4.9 C14,5.673199 13.37322,6.3 12.6,6.3 C12.6,6.3 9.1,6.3 9.1,6.3 C8.32678,6.3 7.7,5.673199 7.7,4.9 C7.7,4.9 7.7,1.4 7.7,1.4 C7.7,0.626801 8.32678,0 9.1,0 Z M9.1,1.4 C9.1,1.4 9.1,4.9 9.1,4.9 C9.1,4.9 12.6,4.9 12.6,4.9 C12.6,4.9 12.6,1.4 12.6,1.4 C12.6,1.4 9.1,1.4 9.1,1.4 Z M1.4,7.7 C1.4,7.7 4.9,7.7 4.9,7.7 C5.673199,7.7 6.3,8.32678 6.3,9.1 C6.3,9.1 6.3,12.6 6.3,12.6 C6.3,13.37322 5.673199,14 4.9,14 C4.9,14 1.4,14 1.4,14 C0.626801,14 0,13.37322 0,12.6 C0,12.6 0,9.1 0,9.1 C0,8.32678 0.626801,7.7 1.4,7.7 Z M1.4,9.1 C1.4,9.1 1.4,12.6 1.4,12.6 C1.4,12.6 4.9,12.6 4.9,12.6 C4.9,12.6 4.9,9.1 4.9,9.1 C4.9,9.1 1.4,9.1 1.4,9.1 Z M9.1,7.7 C9.1,7.7 12.6,7.7 12.6,7.7 C13.37322,7.7 14,8.32678 14,9.1 C14,9.1 14,12.6 14,12.6 C14,13.37322 13.37322,14 12.6,14 C12.6,14 9.1,14 9.1,14 C8.32678,14 7.7,13.37322 7.7,12.6 C7.7,12.6 7.7,9.1 7.7,9.1 C7.7,8.32678 8.32678,7.7 9.1,7.7 Z M9.1,9.1 C9.1,9.1 9.1,12.6 9.1,12.6 C9.1,12.6 12.6,12.6 12.6,12.6 C12.6,12.6 12.6,9.1 12.6,9.1 C12.6,9.1 9.1,9.1 9.1,9.1 Z" id="形状"></path>
                </g>
</svg>