<?xml version="1.0" encoding="UTF-8"?>
<svg width="17px" height="17px" viewBox="0 0 17 17" version="1.1" xmlns="http://www.w3.org/2000/svg" xmlns:xlink="http://www.w3.org/1999/xlink">
    <title>icon_enable</title>
    <g id="企业级BOM管理" stroke="none" stroke-width="1" fill="none" fill-rule="evenodd">
        <g id="切图" transform="translate(-272, -816)">
            <g id="编组-22" transform="translate(272.5, 816.5)">
                <rect id="矩形" x="0" y="0" width="16" height="16"></rect>
                <g id="编组" transform="translate(1, 1)" fill="#FFFFFF">
                    <path d="M0,7 C0,3.13400818 3.13400818,0 7,0 C10.8659727,0 14,3.13400818 14,7 C14,10.8659727 10.8659727,14 7,14 C3.13400818,14 0,10.8659727 0,7 C0,7 0,7 0,7 Z M7,1.27272727 C3.83691,1.27272727 1.27272727,3.83691 1.27272727,7 C1.27272727,10.1631091 3.83691,12.7272727 7,12.7272727 C10.1631091,12.7272727 12.7272727,10.1631091 12.7272727,7 C12.7272727,3.83691 10.1631091,1.27272727 7,1.27272727 C7,1.27272727 7,1.27272727 7,1.27272727 Z M5.40909091,4.24446273 C5.60598182,4.13078909 5.84856364,4.13078909 6.04545455,4.24446273 C6.04545455,4.24446273 9.86363636,6.44890909 9.86363636,6.44890909 C10.0605273,6.56256364 10.1818182,6.77262727 10.1818182,7 C10.1818182,7.22737273 10.0605273,7.43743636 9.86363636,7.55109091 C9.86363636,7.55109091 6.04545455,9.75551818 6.04545455,9.75551818 C5.84856364,9.86923636 5.60598182,9.86923636 5.40909091,9.75551818 C5.2122,9.64186364 5.09090909,9.4318 5.09090909,9.20442727 C5.09090909,9.20442727 5.09090909,4.79557273 5.09090909,4.79557273 C5.09090909,4.56821909 5.2122,4.35814273 5.40909091,4.24446273 C5.40909091,4.24446273 5.40909091,4.24446273 5.40909091,4.24446273 Z M6.36363636,5.89778636 C6.36363636,5.89778636 6.36363636,8.10218182 6.36363636,8.10218182 C6.36363636,8.10218182 8.27272727,7 8.27272727,7 C8.27272727,7 6.36363636,5.89778636 6.36363636,5.89778636 C6.36363636,5.89778636 6.36363636,5.89778636 6.36363636,5.89778636 Z" id="形状"></path>
                </g>
            </g>
        </g>
    </g>
</svg>