<?xml version="1.0" encoding="UTF-8"?>
<svg width="16px" height="16px" viewBox="0 0 16 16" version="1.1" xmlns="http://www.w3.org/2000/svg" xmlns:xlink="http://www.w3.org/1999/xlink">
    <title>icon_search_blue</title>
    <g id="页面-1" stroke="none" stroke-width="1" fill="none" fill-rule="evenodd">
        <g id="切图" transform="translate(-92, -843)">
            <g id="icon_search_blue" transform="translate(92, 843)">
                <rect id="矩形" fill="#1D2129" opacity="0" x="0" y="0" width="16" height="16"></rect>
                <g id="编组">
                    <rect id="矩形" fill="#1D2129" opacity="0" x="0" y="0" width="16" height="16"></rect>
                    <g transform="translate(1, 1)" fill="#1D2129" id="形状">
                        <path d="M0,6.37780333 C0,2.85545668 2.85545668,0 6.37780333,0 C9.9001634,0 12.7556067,2.85545668 12.7556067,6.37780333 C12.7556067,7.89713035 12.2243021,9.29239231 11.3373846,10.3879647 C11.3373846,10.3879647 13.803379,12.853892 13.803379,12.853892 C14.0655403,13.1161204 14.0655403,13.5411506 13.803379,13.803379 C13.5411506,14.0655403 13.1161204,14.0655403 12.853892,13.803379 C12.853892,13.803379 10.3879647,11.3373846 10.3879647,11.3373846 C9.29239231,12.2243021 7.89713035,12.7556067 6.37780333,12.7556067 C2.85545668,12.7556067 0,9.9001634 0,6.37780333 C0,6.37780333 0,6.37780333 0,6.37780333 Z M6.37780333,1.34269544 C3.59700051,1.34269544 1.34269544,3.59700051 1.34269544,6.37780333 C1.34269544,9.15859271 3.59700051,11.4129112 6.37780333,11.4129112 C9.15859271,11.4129112 11.4129112,9.15859271 11.4129112,6.37780333 C11.4129112,3.59700051 9.15859271,1.34269544 6.37780333,1.34269544 C6.37780333,1.34269544 6.37780333,1.34269544 6.37780333,1.34269544 Z"></path>
                    </g>
                </g>
            </g>
        </g>
    </g>
</svg>