<?xml version="1.0" encoding="UTF-8"?>
<svg width="16px" height="16px" viewBox="0 0 16 16" version="1.1" xmlns="http://www.w3.org/2000/svg" xmlns:xlink="http://www.w3.org/1999/xlink">
                    <g>
                        <rect id="矩形" fill="#D8D8D8" opacity="0" x="0" y="0" width="16" height="16"></rect>
                        <path d="M2.4,8 C2.4,11.09281 4.907211,13.6 8,13.6 C9.54658,13.6 10.94567,12.97399 11.95976,11.95983 C12.23318,11.68641 12.67635,11.68641 12.9497,11.95976 C13.22312,12.23318 13.22312,12.67635 12.94977,12.9497 C11.68375,14.21572 9.93284,15 8,15 C4.134019,15 1,11.86596 1,8 C1,4.134019 4.134019,1 8,1 C9.93284,1 11.68375,1.784266 12.94977,3.050265 C13.12631,3.226798 13.35955,3.473968 13.6,3.733843 C13.6,3.733843 13.6,2.4 13.6,2.4 C13.6,2.013404 13.91339,1.7 14.3,1.7 C14.68661,1.7 15,2.013404 15,2.4 C15,2.4 15,5.55 15,5.55 C15,5.936596 14.68661,6.25 14.3,6.25 C14.3,6.25 11.15,6.25 11.15,6.25 C10.76339,6.25 10.45,5.936596 10.45,5.55 C10.45,5.163404 10.76339,4.85 11.15,4.85 C11.15,4.85 12.72479,4.85 12.72479,4.85 C12.43793,4.537695 12.15527,4.235722 11.95976,4.040212 C10.94567,3.026038 9.54658,2.4 8,2.4 C4.907211,2.4 2.4,4.907211 2.4,8 Z" id="路径" fill="#1890FF"></path>
                    </g>
</svg>