<?xml version="1.0" encoding="UTF-8"?>
<svg width="16px" height="17px" viewBox="0 0 16 17" version="1.1" xmlns="http://www.w3.org/2000/svg" xmlns:xlink="http://www.w3.org/1999/xlink">
    <title>icon_view</title>
    <g id="企业级BOM管理" stroke="none" stroke-width="1" fill="none" fill-rule="evenodd">
        <g id="切图" transform="translate(-200, -816)">
            <g id="编组" transform="translate(200, 816.5)">
                <rect id="矩形" fill="#D8D8D8" opacity="0" x="0" y="0" width="16" height="16"></rect>
                <g transform="translate(1, 3.5454)" fill="#FFFFFF" id="形状">
                    <path d="M2.09403477,2.05555321 C3.28661963,1.06702818 5.02114737,0 6.99999201,0 C8.97886209,0 10.7133644,1.06702818 11.9059302,2.05555321 C12.5112496,2.55729631 12.9995397,3.05758847 13.3367545,3.43241304 C13.505712,3.6202326 13.637696,3.77763983 13.7285067,3.88943173 C13.7738802,3.94535632 13.8090717,3.98994708 13.8334448,4.02132671 C13.8455996,4.0370197 13.8551452,4.04941628 13.8618908,4.05827461 C13.8618908,4.05827461 13.8699091,4.0688957 13.8699091,4.0688957 C13.8699091,4.0688957 13.8723909,4.0721603 13.8723909,4.0721603 C13.8723909,4.0721603 13.8732182,4.07327396 13.8732182,4.07327396 C13.8733455,4.07345214 13.873791,4.07404397 13.3637368,4.45462137 C13.873791,4.83519876 13.8735404,4.83536422 13.8735404,4.8355424 C13.8735404,4.8355424 13.8723909,4.83708243 13.8723909,4.83708243 C13.8723909,4.83708243 13.8699091,4.84034703 13.8699091,4.84034703 C13.8699091,4.84034703 13.8618908,4.85096812 13.8618908,4.85096812 C13.8551452,4.85982645 13.8455996,4.87222303 13.8334448,4.88791602 C13.8090717,4.91929565 13.7738802,4.96388641 13.7285067,5.019811 C13.637696,5.1316029 13.505712,5.28901013 13.3367545,5.47682969 C12.9995397,5.85165426 12.5112496,6.35194642 11.9059302,6.85368952 C10.7133644,7.84223364 8.97886209,8.90924273 6.99999201,8.90924273 C5.02114737,8.90924273 3.28661963,7.84223364 2.09403477,6.85368952 C1.48871536,6.35194642 1.00043159,5.85165426 0.663235839,5.47682969 C0.494269505,5.28901013 0.362270801,5.1316029 0.271502164,5.019811 C0.226094935,4.96388641 0.190936518,4.91929565 0.166559557,4.88791602 C0.154369804,4.87222303 0.144868733,4.85982645 0.138124436,4.85096812 C0.138124436,4.85096812 0.130081299,4.84034703 0.130081299,4.84034703 C0.130081299,4.84034703 0.127624257,4.83708243 0.127624257,4.83708243 C0.127624257,4.83708243 0.126789334,4.83596877 0.126789334,4.83596877 C0.126657604,4.83579059 0.12621787,4.83519876 0.63624847,4.45462137 C0.12621787,4.07404397 0.126466285,4.07387851 0.126466285,4.07370033 C0.126466285,4.07370033 0.127624257,4.0721603 0.127624257,4.0721603 C0.127624257,4.0721603 0.130081299,4.0688957 0.130081299,4.0688957 C0.130081299,4.0688957 0.138124436,4.05827461 0.138124436,4.05827461 C0.144868733,4.04941628 0.154369804,4.0370197 0.166559557,4.02132671 C0.190936518,3.98994708 0.226094935,3.94535632 0.271502164,3.88943173 C0.362270801,3.77763983 0.494269505,3.6202326 0.663235839,3.43241304 C1.00043159,3.05758847 1.48871536,2.55729631 2.09403477,2.05555321 C2.09403477,2.05555321 2.09403477,2.05555321 2.09403477,2.05555321 Z M0.63624847,4.45462137 C0.63624847,4.45462137 0.12647051,4.07370033 0.12647051,4.07370033 C-0.0419882513,4.29946054 -0.0422410192,4.60944491 0.12621787,4.83519876 C0.12621787,4.83519876 0.63624847,4.45462137 0.63624847,4.45462137 C0.63624847,4.45462137 0.63624847,4.45462137 0.63624847,4.45462137 Z M1.4585703,4.45462137 C1.50423653,4.50741499 1.55459285,4.56463779 1.60944833,4.62561519 C1.91630174,4.96671191 2.3599693,5.42098783 2.90625861,5.87380009 C4.01689117,6.79437942 5.46423583,7.63649377 6.99999201,7.63649377 C8.53575454,7.63649377 9.98312466,6.79437942 11.0937254,5.87380009 C11.6399893,5.42098783 12.0836695,4.96671191 12.3905293,4.62561519 C12.4453848,4.56463779 12.495722,4.50741499 12.5414137,4.45462137 C12.495722,4.40182774 12.4453848,4.34460495 12.3905293,4.28362754 C12.0836695,3.94253082 11.6399893,3.48826126 11.0937254,3.03544264 C9.98312466,2.11484422 8.53575454,1.27274896 6.99999201,1.27274896 C5.46423583,1.27274896 4.01689117,2.11484422 2.90625861,3.03544264 C2.3599693,3.48826126 1.91630174,3.94253082 1.60944833,4.28362754 C1.55459285,4.34460495 1.50423653,4.40182774 1.4585703,4.45462137 C1.4585703,4.45462137 1.4585703,4.45462137 1.4585703,4.45462137 Z M13.3637368,4.45462137 C13.3637368,4.45462137 13.8735364,4.8355424 13.8735364,4.8355424 C14.0419847,4.60978219 14.0422393,4.29979782 13.873791,4.07404397 C13.873791,4.07404397 13.3637368,4.45462137 13.3637368,4.45462137 C13.3637368,4.45462137 13.3637368,4.45462137 13.3637368,4.45462137 Z M4.77268132,4.45462137 C4.77268132,3.22452222 5.76989286,2.22731068 6.99999201,2.22731068 C8.23010388,2.22731068 9.22730269,3.22452222 9.22730269,4.45462137 C9.22730269,5.68472687 8.23010388,6.68193205 6.99999201,6.68193205 C5.76989286,6.68193205 4.77268132,5.68472687 4.77268132,4.45462137 C4.77268132,4.45462137 4.77268132,4.45462137 4.77268132,4.45462137 Z M6.99999201,3.50005964 C6.47281939,3.50005964 6.04543028,3.92743602 6.04543028,4.45462137 C6.04543028,4.98180671 6.47281939,5.40918309 6.99999201,5.40918309 C7.52716462,5.40918309 7.95455373,4.98180671 7.95455373,4.45462137 C7.95455373,3.92743602 7.52716462,3.50005964 6.99999201,3.50005964 C6.99999201,3.50005964 6.99999201,3.50005964 6.99999201,3.50005964 Z"></path>
                </g>
            </g>
        </g>
    </g>
</svg>