<?xml version="1.0" encoding="UTF-8"?>
<svg width="16px" height="16px" viewBox="0 0 16 16" version="1.1" xmlns="http://www.w3.org/2000/svg" xmlns:xlink="http://www.w3.org/1999/xlink">
                    <g transform="translate(1.0001, 1)" id="形状">
                        <path d="M0,1.74998551 C0,0.783496513 0.783496513,0 1.74998551,0 L12.2498986,0 C13.2163806,0 13.9998841,0.783503513 13.9998841,1.74998551 L13.9998841,3.49997102 C13.9998841,3.88656382 13.6864967,4.19996522 13.2998899,4.19996522 C12.9132831,4.19996522 12.5998957,3.88656382 12.5998957,3.49997102 L12.5998957,1.74998551 C12.5998957,1.55668211 12.443237,1.39998841 12.2498986,1.39998841 L6.64994494,1.39998841 L6.64994494,7.69993625 C6.64994494,9.08711476 6.02075515,10.4236837 5.16351425,11.5009048 C4.84867085,11.8966115 4.49590177,12.2664884 4.11910189,12.5998957 L12.2498986,12.5998957 C12.443237,12.5998957 12.5998957,12.443237 12.5998957,12.2498986 L12.5998957,11.0249087 C12.5998957,10.6383019 12.9132831,10.3249145 13.2998899,10.3249145 C13.6864967,10.3249145 13.9998841,10.6383019 13.9998841,11.0249087 L13.9998841,12.2498986 C13.9998841,13.2163806 13.2163806,13.9998841 12.2498986,13.9998841 L1.76619038,13.9998841 C1.75412948,14.0000569 1.74208258,14.0000569 1.73007768,13.9997441 C0.772765602,13.9891042 0,13.2098006 0,12.2498986 L0,1.74998551 Z M1.74998551,1.39998841 L5.24995653,1.39998841 L5.24995653,7.69993625 C5.24995653,8.6713882 4.80024525,9.70905961 4.06804432,10.629202 C3.381693,11.4917349 2.49380635,12.1906091 1.6420534,12.5829558 C1.50157157,12.5374562 1.39998841,12.4055073 1.39998841,12.2498986 L1.39998841,1.74998551 C1.39998841,1.55668911 1.55668911,1.39998841 1.74998551,1.39998841 Z M9.09992465,6.64994494 C8.71331785,6.64994494 8.39993045,6.96333934 8.39993045,7.34993914 C8.39993045,7.73654594 8.71331785,8.04993335 9.09992465,8.04993335 L11.6099639,8.04993335 L10.7049414,8.95495585 C10.4315936,9.22830359 10.4315936,9.67153992 10.7049414,9.94488766 C10.9782891,10.2182354 11.4215254,10.2182354 11.6948732,9.94488766 L13.7948558,7.84490505 C13.9298847,7.70987616 13.9982041,7.53340762 13.9998841,7.35637909 L13.9998841,7.3434992 C13.9990441,7.25088996 13.9802142,7.16262069 13.9467545,7.08198136 C13.9125948,6.99943105 13.8619852,6.92208169 13.7948558,6.85496624 L11.6948732,4.75498363 C11.4215254,4.48162189 10.9782891,4.48162189 10.7049414,4.75498363 C10.4315936,5.02835237 10.4315936,5.4715607 10.7049414,5.74492943 L11.6099639,6.64994494 L9.09992465,6.64994494 Z"></path>
                    </g>
        
</svg>