<?xml version="1.0" encoding="UTF-8"?>
<svg width="16px" height="16px" viewBox="0 0 16 16" version="1.1" xmlns="http://www.w3.org/2000/svg" xmlns:xlink="http://www.w3.org/1999/xlink">
                    <g transform="translate(1, 1)" id="形状">
                        <path d="M11.0045852,0.195262232 C11.2530855,-0.0650874108 11.6560314,-0.0650874108 11.9045317,0.195262232 C11.9045317,0.195262232 13.8136248,2.19526261 13.8136248,2.19526261 C14.0621251,2.45561626 14.0621251,2.87772343 13.8136248,3.13807707 C13.5651245,3.39842405 13.1621786,3.39842405 12.9136783,3.13807707 C12.9136783,3.13807707 12.0909228,2.27614271 12.0909228,2.27614271 C12.0909228,2.27614271 12.0909228,9.33334444 12.0909228,9.33334444 C12.0909228,9.70154488 11.8060225,10.0000119 11.4545505,10.0000119 C11.4545505,10.0000119 5.09091488,10.0000119 5.09091488,10.0000119 C4.73946357,10.0000119 4.45455052,9.70154488 4.45455052,9.33334444 C4.45455052,8.96514401 4.73946357,8.66667698 5.09091488,8.66667698 C5.09091488,8.66667698 10.8181941,8.66667698 10.8181941,8.66667698 C10.8181941,8.66667698 10.8181941,2.27614271 10.8181941,2.27614271 C10.8181941,2.27614271 9.99543863,3.13807707 9.99543863,3.13807707 C9.74693835,3.39842405 9.34399244,3.39842405 9.09549215,3.13807707 C8.84699187,2.87772343 8.84699187,2.45561626 9.09549215,2.19526261 C9.09549215,2.19526261 11.0045852,0.195262232 11.0045852,0.195262232 C11.0045852,0.195262232 11.0045852,0.195262232 11.0045852,0.195262232 Z M1.90909308,6.00000714 C1.90909308,5.63182004 2.19400613,5.33333968 2.54545744,5.33333968 C2.54545744,5.33333968 8.90910103,5.33333968 8.90910103,5.33333968 C9.26056507,5.33333968 9.54546539,5.63182004 9.54546539,6.00000714 C9.54546539,6.36820091 9.26056507,6.6666746 8.90910103,6.6666746 C8.90910103,6.6666746 3.1818218,6.6666746 3.1818218,6.6666746 C3.1818218,6.6666746 3.1818218,11.7238806 3.1818218,11.7238806 C3.1818218,11.7238806 4.00457091,10.8619463 4.00457091,10.8619463 C4.25309029,10.6016126 4.65601075,10.6016126 4.90453012,10.8619463 C5.15304313,11.1222799 5.15304313,11.5444137 4.90453012,11.8047474 C4.90453012,11.8047474 2.99543704,13.8047498 2.99543704,13.8047498 C2.74691767,14.0650834 2.34399721,14.0650834 2.09547784,13.8047498 C2.09547784,13.8047498 0.186386666,11.8047474 0.186386666,11.8047474 C-0.0621288888,11.5444137 -0.0621288888,11.1222799 0.186386666,10.8619463 C0.434902221,10.6016126 0.837824588,10.6016126 1.08634396,10.8619463 C1.08634396,10.8619463 1.90909308,11.7238806 1.90909308,11.7238806 C1.90909308,11.7238806 1.90909308,6.00000714 1.90909308,6.00000714 C1.90909308,6.00000714 1.90909308,6.00000714 1.90909308,6.00000714 Z"></path>
                    </g>
</svg>