<?xml version="1.0" encoding="UTF-8"?>
<svg width="16px" height="16px" viewBox="0 0 16 16" version="1.1" xmlns="http://www.w3.org/2000/svg" xmlns:xlink="http://www.w3.org/1999/xlink">
                    <g transform="translate(1, 1)" id="形状">
                        <path d="M7,0 C3.13400818,0 0,3.13400818 0,7 C0,10.8659727 3.13400818,14 7,14 C10.8659727,14 14,10.8659727 14,7 C14,3.13400818 10.8659727,0 7,0 C7,0 7,0 7,0 Z M1.27272727,7 C1.27272727,3.83691 3.83691,1.27272727 7,1.27272727 C10.1631091,1.27272727 12.7272727,3.83691 12.7272727,7 C12.7272727,10.1631091 10.1631091,12.7272727 7,12.7272727 C3.83691,12.7272727 1.27272727,10.1631091 1.27272727,7 C1.27272727,7 1.27272727,7 1.27272727,7 Z M10.5598542,4.61121408 C10.3484088,4.40041948 10.0020024,4.41522672 9.8093091,4.64328963 L6.64155143,8.39257339 L5.49364442,7.19385767 C5.29554717,6.98699382 4.96607473,6.98350303 4.76363242,7.18611505 L4.40290185,7.54714837 C4.20667449,7.74354035 4.20331152,8.06071421 4.39531694,8.26122626 L6.28584564,10.2354204 C6.43532521,10.3915146 6.65960974,10.4318161 6.84767263,10.3551336 C6.95176686,10.3315417 7.0495642,10.2751798 7.12427526,10.1867628 L7.40944968,9.84923443 L7.729611,9.5287987 L7.70335459,9.50137245 L10.9485537,5.66043588 C11.1200476,5.45745742 11.1071997,5.15687475 10.9190144,4.96926697 L10.5598542,4.61121408 Z"></path>
                    </g>
</svg>