<?xml version="1.0" encoding="UTF-8"?>
<svg width="30px" height="30px" viewBox="0 0 30 30" version="1.1" xmlns="http://www.w3.org/2000/svg" xmlns:xlink="http://www.w3.org/1999/xlink">
    <title>icon_operate_9</title>
    <defs>
        <rect id="path-1" x="0" y="0" width="24" height="24"></rect>
    </defs>
    <g id="页面-1" stroke="none" stroke-width="1" fill="none" fill-rule="evenodd">
        <g id="切图" transform="translate(-447, -343)">
            <g id="icon_operate_9" transform="translate(447, 343)">
                <rect id="矩形" stroke="#F2F2F2" fill="#FFFFFF" x="0.5" y="0.5" width="29" height="29" rx="10"></rect>
                <g id="编组" transform="translate(3, 3)">
                    <rect id="矩形" fill="#D8D8D8" opacity="0" x="4" y="4" width="16" height="16"></rect>
                    <g>
                        <mask id="mask-2" fill="white">
                            <use xlink:href="#path-1"></use>
                        </mask>
                        <g id="矩形"></g>
                        <path d="M17.59825,8.549875 C17.62576,8.164259 17.33547,7.829323 16.94984,7.801778 C16.56428,7.774233 16.22933,8.064509 16.20175,8.450125 C16.20175,8.450125 17.59825,8.549875 17.59825,8.549875 C17.59825,8.549875 17.59825,8.549875 17.59825,8.549875 Z M16.29289,16.99975 C16.29289,16.99975 15.59464,16.94984 15.59464,16.94984 C15.59464,16.94984 16.29289,16.99975 16.29289,16.99975 C16.29289,16.99975 16.29289,16.99975 16.29289,16.99975 Z M7.707124,16.99975 C7.707124,16.99975 8.405346,16.94984 8.405346,16.94984 C8.405346,16.94984 7.707124,16.99975 7.707124,16.99975 C7.707124,16.99975 7.707124,16.99975 7.707124,16.99975 Z M7.798222,8.450125 C7.770677,8.064509 7.435741,7.774233 7.050125,7.801778 C6.664509,7.829323 6.3742351,8.164259 6.401778,8.549875 C6.401778,8.549875 7.798222,8.450125 7.798222,8.450125 C7.798222,8.450125 7.798222,8.450125 7.798222,8.450125 Z M11.3,11.3 C11.3,10.913404 10.986596,10.6 10.6,10.6 C10.213404,10.6 9.9,10.913404 9.9,11.3 C9.9,11.3 11.3,11.3 11.3,11.3 C11.3,11.3 11.3,11.3 11.3,11.3 Z M9.9,15.5 C9.9,15.88661 10.213404,16.2 10.6,16.2 C10.986596,16.2 11.3,15.88661 11.3,15.5 C11.3,15.5 9.9,15.5 9.9,15.5 C9.9,15.5 9.9,15.5 9.9,15.5 Z M14.1,11.3 C14.1,10.913404 13.78661,10.6 13.4,10.6 C13.01339,10.6 12.7,10.913404 12.7,11.3 C12.7,11.3 14.1,11.3 14.1,11.3 C14.1,11.3 14.1,11.3 14.1,11.3 Z M12.7,15.5 C12.7,15.88661 13.01339,16.2 13.4,16.2 C13.78661,16.2 14.1,15.88661 14.1,15.5 C14.1,15.5 12.7,15.5 12.7,15.5 C12.7,15.5 12.7,15.5 12.7,15.5 Z M13.4,8.5 C13.4,8.886596 13.71339,9.2 14.1,9.2 C14.48661,9.2 14.8,8.886596 14.8,8.5 C14.8,8.5 13.4,8.5 13.4,8.5 C13.4,8.5 13.4,8.5 13.4,8.5 Z M9.2,8.5 C9.2,8.886596 9.513404,9.2 9.9,9.2 C10.286596,9.2 10.6,8.886596 10.6,8.5 C10.6,8.5 9.2,8.5 9.2,8.5 C9.2,8.5 9.2,8.5 9.2,8.5 Z M6.4,7.8 C6.0134005,7.8 5.7,8.113404 5.7,8.5 C5.7,8.886596 6.0134005,9.2 6.4,9.2 C6.4,9.2 6.4,7.8 6.4,7.8 C6.4,7.8 6.4,7.8 6.4,7.8 Z M17.6,9.2 C17.98661,9.2 18.3,8.886596 18.3,8.5 C18.3,8.113404 17.98661,7.8 17.6,7.8 C17.6,7.8 17.6,9.2 17.6,9.2 C17.6,9.2 17.6,9.2 17.6,9.2 Z M16.20175,8.450125 C16.20175,8.450125 15.59464,16.94984 15.59464,16.94984 C15.59464,16.94984 16.99107,17.04959 16.99107,17.04959 C16.99107,17.04959 17.59825,8.549875 17.59825,8.549875 C17.59825,8.549875 16.20175,8.450125 16.20175,8.450125 C16.20175,8.450125 16.20175,8.450125 16.20175,8.450125 Z M14.89646,17.6 C14.89646,17.6 9.103568,17.6 9.103568,17.6 C9.103568,17.6 9.103568,19 9.103568,19 C9.103568,19 14.89646,19 14.89646,19 C14.89646,19 14.89646,17.6 14.89646,17.6 C14.89646,17.6 14.89646,17.6 14.89646,17.6 Z M8.405346,16.94984 C8.405346,16.94984 7.798222,8.450125 7.798222,8.450125 C7.798222,8.450125 6.401778,8.549875 6.401778,8.549875 C6.401778,8.549875 7.008902,17.04959 7.008902,17.04959 C7.008902,17.04959 8.405346,16.94984 8.405346,16.94984 C8.405346,16.94984 8.405346,16.94984 8.405346,16.94984 Z M9.103568,17.6 C8.73632,17.6 8.431512,17.31622 8.405346,16.94984 C8.405346,16.94984 7.008902,17.04959 7.008902,17.04959 C7.0874,18.14859 8.001824,19 9.103568,19 C9.103568,19 9.103568,17.6 9.103568,17.6 C9.103568,17.6 9.103568,17.6 9.103568,17.6 Z M15.59464,16.94984 C15.56846,17.31622 15.26368,17.6 14.89646,17.6 C14.89646,17.6 14.89646,19 14.89646,19 C15.99819,19 16.9126,18.14859 16.99107,17.04959 C16.99107,17.04959 15.59464,16.94984 15.59464,16.94984 C15.59464,16.94984 15.59464,16.94984 15.59464,16.94984 Z M9.9,11.3 C9.9,11.3 9.9,15.5 9.9,15.5 C9.9,15.5 11.3,15.5 11.3,15.5 C11.3,15.5 11.3,11.3 11.3,11.3 C11.3,11.3 9.9,11.3 9.9,11.3 C9.9,11.3 9.9,11.3 9.9,11.3 Z M12.7,11.3 C12.7,11.3 12.7,15.5 12.7,15.5 C12.7,15.5 14.1,15.5 14.1,15.5 C14.1,15.5 14.1,11.3 14.1,11.3 C14.1,11.3 12.7,11.3 12.7,11.3 C12.7,11.3 12.7,11.3 12.7,11.3 Z M10.6,6.4 C10.6,6.4 13.4,6.4 13.4,6.4 C13.4,6.4 13.4,5 13.4,5 C13.4,5 10.6,5 10.6,5 C10.6,5 10.6,6.4 10.6,6.4 C10.6,6.4 10.6,6.4 10.6,6.4 Z M13.4,6.4 C13.4,6.4 13.4,8.5 13.4,8.5 C13.4,8.5 14.8,8.5 14.8,8.5 C14.8,8.5 14.8,6.4 14.8,6.4 C14.8,6.4 13.4,6.4 13.4,6.4 C13.4,6.4 13.4,6.4 13.4,6.4 Z M10.6,8.5 C10.6,8.5 10.6,6.4 10.6,6.4 C10.6,6.4 9.2,6.4 9.2,6.4 C9.2,6.4 9.2,8.5 9.2,8.5 C9.2,8.5 10.6,8.5 10.6,8.5 C10.6,8.5 10.6,8.5 10.6,8.5 Z M13.4,6.4 C13.4,6.4 14.8,6.4 14.8,6.4 C14.8,5.6268017 14.17322,5 13.4,5 C13.4,5 13.4,6.4 13.4,6.4 C13.4,6.4 13.4,6.4 13.4,6.4 Z M10.6,5 C9.826801,5 9.2,5.6268017 9.2,6.4 C9.2,6.4 10.6,6.4 10.6,6.4 C10.6,6.4 10.6,5 10.6,5 C10.6,5 10.6,5 10.6,5 Z M6.4,9.2 C6.4,9.2 17.6,9.2 17.6,9.2 C17.6,9.2 17.6,7.8 17.6,7.8 C17.6,7.8 6.4,7.8 6.4,7.8 C6.4,7.8 6.4,9.2 6.4,9.2 C6.4,9.2 6.4,9.2 6.4,9.2 Z" id="形状" fill="#1890FF" fill-rule="nonzero" mask="url(#mask-2)"></path>
                    </g>
                </g>
            </g>
        </g>
    </g>
</svg>