<?xml version="1.0" encoding="UTF-8"?>
<svg width="16px" height="16px" viewBox="0 0 16 16" version="1.1" xmlns="http://www.w3.org/2000/svg" xmlns:xlink="http://www.w3.org/1999/xlink">
                    <g transform="translate(1, 1)" id="形状">
                        <path d="M7,0 C5.06719182,0 3.31632,0.784203636 2.05025545,2.05024909 C0.78421,3.31631364 0,5.06719182 0,7 C0,8.93282727 0.784203636,10.6836545 2.05025545,11.9497636 C3.31632,13.2158091 5.06719182,14 7,14 C8.93282727,14 10.6836545,13.2158091 11.9497636,11.9497636 C13.2158091,10.6836545 14,8.93282727 14,7 C14,5.06719182 13.2158091,3.31631364 11.9497636,2.05024909 C10.6836545,0.784197273 8.93282727,0 7,0 Z M2.95020091,2.95020727 C3.98735273,1.91307455 5.41829909,1.27272727 7,1.27272727 C8.58168182,1.27272727 10.0126727,1.91307455 11.0497545,2.95020727 C12.0869,3.98735273 12.7272727,5.41829909 12.7272727,7 C12.7272727,8.58168182 12.0869,10.0126727 11.0497545,11.0497545 C10.0126727,12.0869 8.58168182,12.7272727 7,12.7272727 C5.41829909,12.7272727 3.98735273,12.0869 2.95020727,11.0497545 C1.91307455,10.0126727 1.27272727,8.58168182 1.27272727,7 C1.27272727,5.41829909 1.91306818,3.98735909 2.95020091,2.95020727 Z M7,2.54545455 C7.35146364,2.54545455 7.63636364,2.83036727 7.63636364,3.18181818 L7.63636364,8.27272727 C7.63636364,8.62419091 7.35146364,8.90909091 7,8.90909091 C6.64853636,8.90909091 6.36363636,8.62419091 6.36363636,8.27272727 L6.36363636,3.18181818 C6.36363636,2.83036727 6.64853636,2.54545455 7,2.54545455 Z M7.79545455,10.3409091 C7.79545455,10.7801909 7.43928182,11.1363636 7,11.1363636 C6.56071818,11.1363636 6.20454545,10.7801909 6.20454545,10.3409091 C6.20454545,9.90162727 6.56071818,9.54545455 7,9.54545455 C7.43928182,9.54545455 7.79545455,9.90162727 7.79545455,10.3409091 Z"></path>
                    </g>
</svg>