<?xml version="1.0" encoding="UTF-8"?>
<svg width="16px" height="16px" viewBox="0 0 16 16" version="1.1" xmlns="http://www.w3.org/2000/svg" xmlns:xlink="http://www.w3.org/1999/xlink">
                    <g transform="translate(1, 1)" id="形状">
                        <path d="M1.75,1.4 C1.556702,1.4 1.4,1.556702 1.4,1.75 C1.4,1.75 1.4,12.25 1.4,12.25 C1.4,12.44327 1.556702,12.6 1.75,12.6 C1.75,12.6 12.25,12.6 12.25,12.6 C12.44327,12.6 12.6,12.44327 12.6,12.25 C12.6,12.25 12.6,1.75 12.6,1.75 C12.6,1.556702 12.44327,1.4 12.25,1.4 C12.25,1.4 1.75,1.4 1.75,1.4 C1.75,1.4 1.75,1.4 1.75,1.4 Z M0,1.75 C0,0.783503 0.783503,0 1.75,0 C1.75,0 12.25,0 12.25,0 C13.21649,0 14,0.783503 14,1.75 C14,1.75 14,12.25 14,12.25 C14,13.21649 13.21649,14 12.25,14 C12.25,14 1.75,14 1.75,14 C0.783503,14 0,13.21649 0,12.25 C0,12.25 0,1.75 0,1.75 C0,1.75 0,1.75 0,1.75 Z M2.8,3.85 C2.8,3.463404 3.113404,3.15 3.5,3.15 C3.5,3.15 10.5,3.15 10.5,3.15 C10.88661,3.15 11.2,3.463404 11.2,3.85 C11.2,4.236596 10.88661,4.55 10.5,4.55 C10.5,4.55 3.5,4.55 3.5,4.55 C3.113404,4.55 2.8,4.236596 2.8,3.85 C2.8,3.85 2.8,3.85 2.8,3.85 Z M4.2,7 C4.2,6.613397 4.513404,6.3 4.9,6.3 C4.9,6.3 9.1,6.3 9.1,6.3 C9.48661,6.3 9.8,6.613397 9.8,7 C9.8,7.38661 9.48661,7.7 9.1,7.7 C9.1,7.7 4.9,7.7 4.9,7.7 C4.513404,7.7 4.2,7.38661 4.2,7 C4.2,7 4.2,7 4.2,7 Z M2.8,10.15 C2.8,9.76339 3.113404,9.45 3.5,9.45 C3.5,9.45 10.5,9.45 10.5,9.45 C10.88661,9.45 11.2,9.76339 11.2,10.15 C11.2,10.53661 10.88661,10.85 10.5,10.85 C10.5,10.85 3.5,10.85 3.5,10.85 C3.113404,10.85 2.8,10.53661 2.8,10.15 C2.8,10.15 2.8,10.15 2.8,10.15 Z"></path>
                    </g>

</svg>