<?xml version="1.0" encoding="UTF-8"?>
<svg width="16px" height="16px" viewBox="0 0 16 16" version="1.1" xmlns="http://www.w3.org/2000/svg" xmlns:xlink="http://www.w3.org/1999/xlink">
    <title>icon_change</title>
    <g id="企业级BOM管理" stroke="none" stroke-width="1" fill="none" fill-rule="evenodd">
        <g id="切图" transform="translate(-475, -818)">
            <g id="icon_change" transform="translate(475, 818)">
                <rect id="矩形" fill="#D8D8D8" opacity="0" x="0" y="0" width="16" height="16"></rect>
                <path d="M1.95468068,2.27272727 C1.95468068,1.56981909 2.52449977,1 3.22740795,1 C3.22740795,1 9.59104432,1 9.59104432,1 C9.94250795,1 10.227408,1.28490955 10.227408,1.63636364 C10.227408,1.98781455 9.94250795,2.27272727 9.59104432,2.27272727 C9.59104432,2.27272727 3.22740795,2.27272727 3.22740795,2.27272727 C3.22740795,2.27272727 3.22740795,13.7272727 3.22740795,13.7272727 C3.22740795,13.7272727 12.1364989,13.7272727 12.1364989,13.7272727 C12.1364989,13.7272727 12.1364989,6.72873636 12.1364989,6.72873636 C12.1364989,6.37728545 12.4213989,6.09237273 12.7728625,6.09237273 C13.1243261,6.09237273 13.4092261,6.37728545 13.4092261,6.72873636 C13.4092261,6.72873636 13.4092261,13.7272727 13.4092261,13.7272727 C13.4092261,14.4302 12.8394261,15 12.1364989,15 C12.1364989,15 3.22740795,15 3.22740795,15 C2.52450614,15 1.95468068,14.4302 1.95468068,13.7272727 C1.95468068,13.7272727 1.95468068,2.27272727 1.95468068,2.27272727 C1.95468068,2.27272727 1.95468068,2.27272727 1.95468068,2.27272727 Z M13.8589443,1.82300273 C14.1074443,2.07151545 14.1074443,2.47443545 13.8589443,2.72295455 C13.8589443,2.72295455 10.042417,6.53948182 10.042417,6.53948182 C9.79391705,6.78800091 9.39097159,6.78800091 9.14247159,6.53948818 C8.89397159,6.29097545 8.89397159,5.88804909 9.14247159,5.63953636 C9.14247159,5.63953636 12.9589352,1.82300273 12.9589352,1.82300273 C13.2074989,1.57448682 13.6103807,1.57448555 13.8589443,1.82300273 C13.8589443,1.82300273 13.8589443,1.82300273 13.8589443,1.82300273 Z M3.86377159,6.09090909 C3.86377159,5.73945818 4.14868432,5.45454545 4.50013523,5.45454545 C4.50013523,5.45454545 7.04558977,5.45454545 7.04558977,5.45454545 C7.39704068,5.45454545 7.68195341,5.73945818 7.68195341,6.09090909 C7.68195341,6.44236 7.39704068,6.72727273 7.04558977,6.72727273 C7.04558977,6.72727273 4.50013523,6.72727273 4.50013523,6.72727273 C4.14868432,6.72727273 3.86377159,6.44236 3.86377159,6.09090909 C3.86377159,6.09090909 3.86377159,6.09090909 3.86377159,6.09090909 Z M3.86377159,9.27272727 C3.86377159,8.92126364 4.14868432,8.63636364 4.50013523,8.63636364 C4.50013523,8.63636364 8.31831705,8.63636364 8.31831705,8.63636364 C8.66978068,8.63636364 8.95468068,8.92126364 8.95468068,9.27272727 C8.95468068,9.62419091 8.66978068,9.90909091 8.31831705,9.90909091 C8.31831705,9.90909091 4.50013523,9.90909091 4.50013523,9.90909091 C4.14868432,9.90909091 3.86377159,9.62419091 3.86377159,9.27272727 C3.86377159,9.27272727 3.86377159,9.27272727 3.86377159,9.27272727 Z" id="形状" fill="#FFFFFF"></path>
            </g>
        </g>
    </g>
</svg>