<?xml version="1.0" encoding="UTF-8"?>
<svg width="16px" height="17px" viewBox="0 0 16 17" version="1.1" xmlns="http://www.w3.org/2000/svg" xmlns:xlink="http://www.w3.org/1999/xlink">
    <title>icon_deactivate</title>
    <g id="企业级BOM管理" stroke="none" stroke-width="1" fill="none" fill-rule="evenodd">
        <g id="切图" transform="translate(-236, -816)">
            <g id="编组-22" transform="translate(236, 816.5)">
                <rect id="矩形" x="0" y="0" width="16" height="16"></rect>
                <g id="编组" transform="translate(1, 1)" fill="#FFFFFF">
                    <path d="M0,7 C0,3.13400818 3.13400818,0 7,0 C10.8659727,0 14,3.13400818 14,7 C14,10.8659727 10.8659727,14 7,14 C3.13400818,14 0,10.8659727 0,7 Z M7,1.27272727 C3.83691,1.27272727 1.27272727,3.83691 1.27272727,7 C1.27272727,10.1631091 3.83691,12.7272727 7,12.7272727 C10.1631091,12.7272727 12.7272727,10.1631091 12.7272727,7 C12.7272727,3.83691 10.1631091,1.27272727 7,1.27272727 Z M3.68638455,3.68638455 C3.93490364,3.43787182 4.33782364,3.43787182 4.58634273,3.68638455 L10.3136091,9.41366364 C10.5621091,9.66216364 10.5621091,10.0651091 10.3136091,10.3136091 C10.0651091,10.5621091 9.66216364,10.5621091 9.41366364,10.3136091 L3.68638455,4.58634273 C3.43787182,4.33782364 3.43787182,3.93490364 3.68638455,3.68638455 Z" id="形状"></path>
                </g>
            </g>
        </g>
    </g>
</svg>