<?xml version="1.0" encoding="UTF-8"?>
<svg width="16px" height="16px" viewBox="0 0 16 16" version="1.1" xmlns="http://www.w3.org/2000/svg" xmlns:xlink="http://www.w3.org/1999/xlink">
                                <g transform="translate(1, 3.2516)">
                                    <g id="编组-23" transform="translate(0, -0)" fill="#1890FF">
                                        <path d="M6.33123894,1.31900811 C6.33123894,0.29915104 7.15799323,-0.527603245 8.1778503,-0.527603245 C9.19770737,-0.527603245 10.0244617,0.29915104 10.0244617,1.31900811 C10.0244617,2.33885463 9.19770737,3.16561947 8.1778503,3.16561947 C7.66232917,3.16561947 7.19608618,2.9543513 6.86111088,2.61366206 C6.86111088,2.61366206 4.15385728,4.25388558 4.15385728,4.25388558 C4.19750062,4.41128546 4.22082596,4.57713226 4.22082596,4.74842921 C4.22082596,4.90233107 4.20200108,5.05180107 4.16653559,5.19472879 C4.16653559,5.19472879 6.92273494,6.82338725 6.92273494,6.82338725 C7.25217041,6.51795773 7.69319396,6.33123894 8.1778503,6.33123894 C9.19770737,6.33123894 10.0244617,7.15799323 10.0244617,8.1778503 C10.0244617,9.19770737 9.19770737,10.0244617 8.1778503,10.0244617 C7.15799323,10.0244617 6.33123894,9.19770737 6.33123894,8.1778503 C6.33123894,8.02400119 6.35007438,7.87453119 6.38552932,7.73160348 C6.38552932,7.73160348 3.62932469,6.10294502 3.62932469,6.10294502 C3.2998945,6.40832178 2.85885512,6.59504057 2.3742146,6.59504057 C1.35436808,6.59504057 0.527603245,5.76828628 0.527603245,4.74842921 C0.527603245,3.72857741 1.35436808,2.90181785 2.3742146,2.90181785 C2.84086912,2.90181785 3.26709868,3.0749192 3.59218669,3.36041059 C3.59218669,3.36041059 6.36643008,1.67960383 6.36643008,1.67960383 C6.34332106,1.56297713 6.33123894,1.44240924 6.33123894,1.31900811 C6.33123894,1.31900811 6.33123894,1.31900811 6.33123894,1.31900811 Z M8.1778503,0.527603245 C7.74078377,0.527603245 7.38644543,0.881931033 7.38644543,1.31900811 C7.38644543,1.75607992 7.74078377,2.11041298 8.1778503,2.11041298 C8.61491683,2.11041298 8.96925517,1.75607992 8.96925517,1.31900811 C8.96925517,0.881931033 8.61491683,0.527603245 8.1778503,0.527603245 C8.1778503,0.527603245 8.1778503,0.527603245 8.1778503,0.527603245 Z M2.3742146,3.95702434 C1.93713752,3.95702434 1.58280974,4.3113574 1.58280974,4.74842921 C1.58280974,5.18549574 1.93713752,5.53983407 2.3742146,5.53983407 C2.81128641,5.53983407 3.16561947,5.18549574 3.16561947,4.74842921 C3.16561947,4.3113574 2.81128641,3.95702434 2.3742146,3.95702434 C2.3742146,3.95702434 2.3742146,3.95702434 2.3742146,3.95702434 Z M8.1778503,7.38644543 C7.74078377,7.38644543 7.38644543,7.74078377 7.38644543,8.1778503 C7.38644543,8.61491683 7.74078377,8.96925517 8.1778503,8.96925517 C8.61491683,8.96925517 8.96925517,8.61491683 8.96925517,8.1778503 C8.96925517,7.74078377 8.61491683,7.38644543 8.1778503,7.38644543 C8.1778503,7.38644543 8.1778503,7.38644543 8.1778503,7.38644543 Z" id="形状" transform="translate(5.276, 4.7484) rotate(-90) translate(-5.276, -4.7484)"></path>
                                        <path d="M11.069637,4.28254181 C11.069637,4.28254181 11.7160582,4.28254181 11.7160582,4.28254181 C11.8469376,4.28254181 11.9530726,4.3886567 11.9530726,4.5195562 C11.9530726,4.5195562 11.9530726,4.89803263 11.9530726,4.89803263 C12.1123226,4.94274776 12.2637748,5.00602586 12.4049168,5.08534747 C12.4049168,5.08534747 12.672672,4.81762076 12.672672,4.81762076 C12.7652261,4.7250619 12.9152799,4.72506427 13.0078578,4.81762313 C13.0078578,4.81762313 13.4649163,5.27469353 13.4649163,5.27469353 C13.5574704,5.36725239 13.5574704,5.51732042 13.4649163,5.60988165 C13.4649163,5.60988165 13.1971849,5.87761311 13.1971849,5.87761311 C13.2765136,6.01876466 13.3397964,6.17022159 13.384521,6.32948104 C13.384521,6.32948104 13.7629856,6.32948104 13.7629856,6.32948104 C13.8938887,6.32948104 14,6.43559476 14,6.56649543 C14,6.56649543 14,7.21291664 14,7.21291664 C14,7.34379598 13.8938887,7.44993103 13.7629856,7.44993103 C13.7629856,7.44993103 13.384521,7.44993103 13.384521,7.44993103 C13.3397964,7.609181 13.2765136,7.76063319 13.1971849,7.90177526 C13.1971849,7.90177526 13.4649163,8.16953042 13.4649163,8.16953042 C13.5574704,8.26208454 13.5574704,8.41213835 13.4649163,8.50471617 C13.4649163,8.50471617 13.0078578,8.96177472 13.0078578,8.96177472 C12.9152799,9.05432884 12.7652261,9.05432884 12.672672,8.96177472 C12.672672,8.96177472 12.4049168,8.69404327 12.4049168,8.69404327 C12.2637748,8.77337198 12.1123226,8.83665483 11.9530726,8.88137944 C11.9530726,8.88137944 11.9530726,9.25984402 11.9530726,9.25984402 C11.9530726,9.39074707 11.8469376,9.49685841 11.7160582,9.49685841 C11.7160582,9.49685841 11.069637,9.49685841 11.069637,9.49685841 C10.9387363,9.49685841 10.8326226,9.39074707 10.8326226,9.25984402 C10.8326226,9.25984402 10.8326226,8.88137944 10.8326226,8.88137944 C10.6733632,8.83665483 10.5219062,8.77337198 10.3807547,8.69404327 C10.3807547,8.69404327 10.1130232,8.96177472 10.1130232,8.96177472 C10.020462,9.05432884 9.87039397,9.05432884 9.77783511,8.96177472 C9.77783511,8.96177472 9.32076471,8.50471617 9.32076471,8.50471617 C9.22820585,8.41213835 9.22820348,8.26208454 9.32076234,8.16953042 C9.32076234,8.16953042 9.58848906,7.90177526 9.58848906,7.90177526 C9.50916745,7.76063319 9.44588935,7.609181 9.40117421,7.44993103 C9.40117421,7.44993103 9.02269778,7.44993103 9.02269778,7.44993103 C8.89179829,7.44993103 8.78568339,7.34379598 8.78568339,7.21291664 C8.78568339,7.21291664 8.78568339,6.56649543 8.78568339,6.56649543 C8.78568339,6.43559476 8.89179829,6.32948104 9.02269778,6.32948104 C9.02269778,6.32948104 9.40117421,6.32948104 9.40117421,6.32948104 C9.44588935,6.17022159 9.50916745,6.01876466 9.58848906,5.87761548 C9.58848906,5.87761548 9.32076234,5.60988165 9.32076234,5.60988165 C9.22820348,5.51732042 9.22820585,5.36725239 9.32076471,5.27469353 C9.32076471,5.27469353 9.77783511,4.81762313 9.77783511,4.81762313 C9.87039397,4.72506427 10.020462,4.7250619 10.1130232,4.81762076 C10.1130232,4.81762076 10.3807571,5.08534747 10.3807571,5.08534747 C10.5219062,5.00602586 10.6733632,4.94274776 10.8326226,4.89803263 C10.8326226,4.89803263 10.8326226,4.5195562 10.8326226,4.5195562 C10.8326226,4.3886567 10.9387363,4.28254181 11.069637,4.28254181 Z M11.3066396,5.08665105 C11.3066396,5.20152482 11.2242771,5.29985972 11.1111833,5.31999646 C10.8806323,5.36104735 10.6671629,5.45170299 10.482102,5.58073836 C10.3878983,5.64642216 10.260157,5.63511894 10.1789488,5.55391544 C10.1789488,5.55391544 9.94543273,5.32040412 9.94543273,5.32040412 C9.94543273,5.32040412 9.82354571,5.44229114 9.82354571,5.44229114 C9.82354571,5.44229114 10.057057,5.6758072 10.057057,5.6758072 C10.1382605,5.75701544 10.1495637,5.88475672 10.0838799,5.97896046 C9.95484457,6.1640213 9.86418894,6.37749068 9.82313805,6.60804169 C9.8030013,6.72113547 9.7046664,6.80349798 9.58979264,6.80349798 C9.58979264,6.80349798 9.25971217,6.80349798 9.25971217,6.80349798 C9.25971217,6.80349798 9.25971217,6.97590224 9.25971217,6.97590224 C9.25971217,6.97590224 9.58979264,6.97590224 9.58979264,6.97590224 C9.7046664,6.97590224 9.8030013,7.05826474 9.82313805,7.17136801 C9.86418894,7.40191191 9.95484457,7.61536707 10.0838799,7.80042791 C10.1495637,7.89464113 10.1382605,8.02239189 10.057057,8.10359302 C10.057057,8.10359302 9.82354571,8.33709959 9.82354571,8.33709959 C9.82354571,8.33709959 9.94543273,8.4589961 9.94543273,8.4589961 C9.94543273,8.4589961 10.1789488,8.22548952 10.1789488,8.22548952 C10.260157,8.14428839 10.3878983,8.1329828 10.482102,8.19865949 C10.6671629,8.32769012 10.8806323,8.41834813 11.1111856,8.45939902 C11.2242771,8.47954524 11.3066396,8.57788251 11.3066396,8.69273969 C11.3066396,8.69273969 11.3066396,9.02282963 11.3066396,9.02282963 C11.3066396,9.02282963 11.4790438,9.02282963 11.4790438,9.02282963 C11.4790438,9.02282963 11.4790438,8.69273969 11.4790438,8.69273969 C11.4790438,8.57788251 11.5614063,8.47954524 11.6745096,8.45939902 C11.9050535,8.41834813 12.1185087,8.32769012 12.3035695,8.19865949 C12.3977827,8.1329828 12.5255335,8.14428839 12.6067346,8.22548952 C12.6067346,8.22548952 12.8402412,8.4589961 12.8402412,8.4589961 C12.8402412,8.4589961 12.9621377,8.33709959 12.9621377,8.33709959 C12.9621377,8.33709959 12.7286311,8.10359302 12.7286311,8.10359302 C12.64743,8.02239189 12.6361244,7.89464113 12.7018011,7.80042791 C12.8308317,7.61536707 12.9214897,7.40191191 12.9625406,7.17136801 C12.9826868,7.05826474 13.0810241,6.97590224 13.1958813,6.97590224 C13.1958813,6.97590224 13.5259712,6.97590224 13.5259712,6.97590224 C13.5259712,6.97590224 13.5259712,6.80349798 13.5259712,6.80349798 C13.5259712,6.80349798 13.1958813,6.80349798 13.1958813,6.80349798 C13.0810241,6.80349798 12.9826868,6.72113547 12.9625406,6.60804406 C12.9214897,6.37749068 12.8308317,6.1640213 12.7018011,5.97896046 C12.6361244,5.88475672 12.64743,5.75701544 12.7286311,5.6758072 C12.7286311,5.6758072 12.9621377,5.44229114 12.9621377,5.44229114 C12.9621377,5.44229114 12.8402412,5.32040412 12.8402412,5.32040412 C12.8402412,5.32040412 12.6067346,5.55391544 12.6067346,5.55391544 C12.5255335,5.63511894 12.3977827,5.64642216 12.3035695,5.58073836 C12.1185087,5.45170299 11.9050535,5.36104735 11.6745096,5.31999646 C11.5614063,5.29985972 11.4790438,5.20152482 11.4790438,5.08665105 C11.4790438,5.08665105 11.4790438,4.75657059 11.4790438,4.75657059 C11.4790438,4.75657059 11.3066396,4.75657059 11.3066396,4.75657059 C11.3066396,4.75657059 11.3066396,5.08665105 11.3066396,5.08665105 Z M11.3928417,6.06014974 C11.8509905,6.06014974 12.2223921,6.43155603 12.2223921,6.88970011 C12.2223921,7.34784893 11.8509905,7.71925048 11.3928417,7.71925048 C10.9346976,7.71925048 10.5632913,7.34784893 10.5632913,6.88970011 C10.5632913,6.43155603 10.9346976,6.06014974 11.3928417,6.06014974 Z M11.0373201,6.88970011 C11.0373201,7.08604283 11.196499,7.2452217 11.3928417,7.2452217 C11.5891844,7.2452217 11.7483633,7.08604283 11.7483633,6.88970011 C11.7483633,6.69335739 11.5891844,6.53417852 11.3928417,6.53417852 C11.196499,6.53417852 11.0373201,6.69335739 11.0373201,6.88970011 Z" id="形状"></path>
                                    </g>
                                    <g transform="translate(-9.1495, 0.119)"></g>
                                </g>
</svg>