<?xml version="1.0" encoding="UTF-8"?>
<svg width="16px" height="16px"  viewBox="7 7 16 16" version="1.1" xmlns="http://www.w3.org/2000/svg" xmlns:xlink="http://www.w3.org/1999/xlink">
    <g id="编组" transform="translate(8, 9.2809)" fill="#1890FF">
        <path d="M8.76565292,8.12464107 C9.01416565,8.37315634 9.01416565,8.77607825 8.76565292,9.02459734 L6.85656201,10.9336883 C6.60804292,11.182201 6.20512292,11.182201 5.95660383,10.9336883 L5.00206028,9.9791428 C4.75354501,9.73062371 4.75354501,9.32770371 5.00206028,9.07918462 C5.25057556,8.83067189 5.65349746,8.83067189 5.90201656,9.07918462 L6.40658292,9.58375734 L7.86569474,8.12464107 C8.11421383,7.8761258 8.51713383,7.8761258 8.76565292,8.12464107 Z M0,2.07461825 C0,1.02025916 0.854731818,0.165527344 1.90909091,0.165527344 C2.96345,0.165527344 3.81818182,1.02025916 3.81818182,2.07461825 C3.81818182,3.12900916 2.96345,3.98370916 1.90909091,3.98370916 C0.854731818,3.98370916 0,3.12900916 0,2.07461825 Z M1.90909091,1.43825462 C1.55764,1.43825462 1.27272727,1.72316098 1.27272727,2.07461825 C1.27272727,2.42608189 1.55764,2.71098189 1.90909091,2.71098189 C2.26054182,2.71098189 2.54545455,2.42608189 2.54545455,2.07461825 C2.54545455,1.72316098 2.26054182,1.43825462 1.90909091,1.43825462 Z M1.90909091,7.6200728 C0.854731818,7.6200728 0,8.4747728 0,9.52916371 C0,10.5835546 0.854731818,11.4382546 1.90909091,11.4382546 C2.96345,11.4382546 3.81818182,10.5835546 3.81818182,9.52916371 C3.81818182,8.4747728 2.96345,7.6200728 1.90909091,7.6200728 Z M1.27272727,9.52916371 C1.27272727,9.17770007 1.55764,8.89280007 1.90909091,8.89280007 C2.26054182,8.89280007 2.54545455,9.17770007 2.54545455,9.52916371 C2.54545455,9.88062734 2.26054182,10.1655273 1.90909091,10.1655273 C1.55764,10.1655273 1.27272727,9.88062734 1.27272727,9.52916371 Z" id="形状"></path>
        <path d="M10.1818182,1.90909091 C10.1818182,0.854731818 11.03655,0 12.0909091,0 C13.1452682,0 14,0.854731818 14,1.90909091 C14,2.96348182 13.1452682,3.81818182 12.0909091,3.81818182 C11.03655,3.81818182 10.1818182,2.96348182 10.1818182,1.90909091 Z M12.0909091,1.27272727 C11.7394582,1.27272727 11.4545455,1.55763364 11.4545455,1.90909091 C11.4545455,2.26055455 11.7394582,2.54545455 12.0909091,2.54545455 C12.44236,2.54545455 12.7272727,2.26055455 12.7272727,1.90909091 C12.7272727,1.55763364 12.44236,1.27272727 12.0909091,1.27272727 Z M12.0909091,7.6200728 C11.03655,7.6200728 10.1818182,8.4747728 10.1818182,9.52916371 C10.1818182,10.5835546 11.03655,11.4382546 12.0909091,11.4382546 C13.1452682,11.4382546 14,10.5835546 14,9.52916371 C14,8.4747728 13.1452682,7.6200728 12.0909091,7.6200728 Z M11.4545455,9.52916371 C11.4545455,9.17770007 11.7394582,8.89280007 12.0909091,8.89280007 C12.44236,8.89280007 12.7272727,9.17770007 12.7272727,9.52916371 C12.7272727,9.88062734 12.44236,10.1655273 12.0909091,10.1655273 C11.7394582,10.1655273 11.4545455,9.88062734 11.4545455,9.52916371 Z" id="形状备份"></path>
        <g transform="translate(5.1665, 0)" id="形状">
            <path d="M0.13912461,0.139123185 C-0.0463748699,0.324625514 -0.0463748699,0.625377454 0.13912461,0.810879784 C0.13912461,0.810879784 1.22825409,1.90000594 1.22825409,1.90000594 C1.22825409,1.90000594 0.13912461,2.98913684 0.13912461,2.98913684 C-0.0463748699,3.17462492 -0.0463748699,3.47539586 0.13912461,3.66088394 C0.324624089,3.84637202 0.625377454,3.84637202 0.810879784,3.66088394 C0.810879784,3.66088394 1.90000594,2.57175304 1.90000594,2.57175304 C1.90000594,2.57175304 2.98913209,3.66088394 2.98913209,3.66088394 C3.17463442,3.84637202 3.47538636,3.84637202 3.66088869,3.66088394 C3.84638627,3.47539586 3.84638627,3.17462492 3.66088869,2.98913684 C3.66088869,2.98913684 2.57175779,1.90000594 2.57175779,1.90000594 C2.57175779,1.90000594 3.66088869,0.810879784 3.66088869,0.810879784 C3.84638627,0.625377454 3.84638627,0.324625514 3.66088869,0.139123185 C3.47538636,-0.0463743949 3.17463442,-0.0463743949 2.98913209,0.139123185 C2.98913209,0.139123185 1.90000594,1.22825409 1.90000594,1.22825409 C1.90000594,1.22825409 0.810879784,0.139123185 0.810879784,0.139123185 C0.625377454,-0.0463743949 0.324624089,-0.0463743949 0.13912461,0.139123185 Z"></path>
        </g>
    </g>
</svg>