<?xml version="1.0" encoding="UTF-8"?>
<svg width="16px" height="16px" viewBox="0 0 16 16" version="1.1" xmlns="http://www.w3.org/2000/svg" xmlns:xlink="http://www.w3.org/1999/xlink">
                <g id="编组" transform="translate(1, 1)">
                    <path d="M8,0 C8.3682,0 8.66666667,0.3134005 8.66666667,0.7 C8.66666667,0.7 8.66666667,3.5 8.66666667,3.5 C8.66666667,3.886596 8.3682,4.2 8,4.2 C7.6318,4.2 7.33333333,3.886596 7.33333333,3.5 C7.33333333,3.5 7.33333333,2.8 7.33333333,2.8 C7.33333333,2.8 0.666666667,2.8 0.666666667,2.8 C0.298476667,2.8 0,2.486596 0,2.1 C0,1.713404 0.298476667,1.4 0.666666667,1.4 C0.666666667,1.4 7.33333333,1.4 7.33333333,1.4 C7.33333333,1.4 7.33333333,0.7 7.33333333,0.7 C7.33333333,0.3134005 7.6318,0 8,0 C8,0 8,0 8,0 Z M10,2.1 C10,1.713404 10.2984667,1.4 10.6666667,1.4 C10.6666667,1.4 12.6666667,1.4 12.6666667,1.4 C13.0348667,1.4 13.3333333,1.713404 13.3333333,2.1 C13.3333333,2.486596 13.0348667,2.8 12.6666667,2.8 C12.6666667,2.8 10.6666667,2.8 10.6666667,2.8 C10.2984667,2.8 10,2.486596 10,2.1 C10,2.1 10,2.1 10,2.1 Z M6,4.9 C6.36819333,4.9 6.66666667,5.213404 6.66666667,5.6 C6.66666667,5.6 6.66666667,6.3 6.66666667,6.3 C6.66666667,6.3 13.3333333,6.3 13.3333333,6.3 C13.7015333,6.3 14,6.613397 14,7 C14,7.38661 13.7015333,7.7 13.3333333,7.7 C13.3333333,7.7 6.66666667,7.7 6.66666667,7.7 C6.66666667,7.7 6.66666667,8.4 6.66666667,8.4 C6.66666667,8.78661 6.36819333,9.1 6,9.1 C5.63181333,9.1 5.33333333,8.78661 5.33333333,8.4 C5.33333333,8.4 5.33333333,5.6 5.33333333,5.6 C5.33333333,5.213404 5.63181333,4.9 6,4.9 C6,4.9 6,4.9 6,4.9 Z M0,7 C0,6.613397 0.298476667,6.3 0.666666667,6.3 C0.666666667,6.3 3.33333333,6.3 3.33333333,6.3 C3.70152,6.3 4,6.613397 4,7 C4,7.38661 3.70152,7.7 3.33333333,7.7 C3.33333333,7.7 0.666666667,7.7 0.666666667,7.7 C0.298476667,7.7 0,7.38661 0,7 C0,7 0,7 0,7 Z M8,9.8 C8.3682,9.8 8.66666667,10.11339 8.66666667,10.5 C8.66666667,10.5 8.66666667,13.3 8.66666667,13.3 C8.66666667,13.68661 8.3682,14 8,14 C7.6318,14 7.33333333,13.68661 7.33333333,13.3 C7.33333333,13.3 7.33333333,12.6 7.33333333,12.6 C7.33333333,12.6 0.666666667,12.6 0.666666667,12.6 C0.298476667,12.6 0,12.28661 0,11.9 C0,11.51339 0.298476667,11.2 0.666666667,11.2 C0.666666667,11.2 7.33333333,11.2 7.33333333,11.2 C7.33333333,11.2 7.33333333,10.5 7.33333333,10.5 C7.33333333,10.11339 7.6318,9.8 8,9.8 C8,9.8 8,9.8 8,9.8 Z M10,11.9 C10,11.51339 10.2984667,11.2 10.6666667,11.2 C10.6666667,11.2 12.6666667,11.2 12.6666667,11.2 C13.0348667,11.2 13.3333333,11.51339 13.3333333,11.9 C13.3333333,12.28661 13.0348667,12.6 12.6666667,12.6 C12.6666667,12.6 10.6666667,12.6 10.6666667,12.6 C10.2984667,12.6 10,12.28661 10,11.9 C10,11.9 10,11.9 10,11.9 Z" id="形状"></path>
                </g>
</svg>