<?xml version="1.0" encoding="UTF-8"?>
<svg width="16px" height="16px" viewBox="0 0 16 16" version="1.1" xmlns="http://www.w3.org/2000/svg" xmlns:xlink="http://www.w3.org/1999/xlink">
                    <g transform="translate(1.1667, 1)" fill="#1890FF" id="形状">
                        <path d="M7.33333333,0 C5.67648,0 4.33333333,1.34314667 4.33333333,3 C4.33333333,4.65685333 5.67648,6 7.33333333,6 C8.9902,6 10.3333333,4.65685333 10.3333333,3 C10.3333333,1.34314667 8.9902,0 7.33333333,0 Z M5.66666667,3 C5.66666667,2.07952667 6.41286,1.33333333 7.33333333,1.33333333 C8.2538,1.33333333 9,2.07952667 9,3 C9,3.92047333 8.2538,4.66666667 7.33333333,4.66666667 C6.41286,4.66666667 5.66666667,3.92047333 5.66666667,3 Z M1.33333333,13 C1.33333333,10.4943333 3.64516667,8.33333333 6.66666667,8.33333333 C7.03486667,8.33333333 7.33333333,8.03486667 7.33333333,7.66666667 C7.33333333,7.29846667 7.03486667,7 6.66666667,7 C3.06076667,7 0,9.6146 0,13 C0,13.3682 0.298476667,13.6666667 0.666666667,13.6666667 C1.03485333,13.6666667 1.33333333,13.3682 1.33333333,13 Z M11.1952667,8.19526667 C11.4556,7.93493333 11.8777333,7.93493333 12.1380667,8.19526667 L13.4714,9.5286 C13.7317333,9.78893333 13.7317333,10.2110667 13.4714,10.4714 L10.1380667,13.8047333 C10.0130667,13.9297333 9.84346667,14 9.66666667,14 L8.33333333,14 C7.96513333,14 7.66666667,13.7015333 7.66666667,13.3333333 L7.66666667,12 C7.66666667,11.8232 7.73693333,11.6536 7.86193333,11.5286 L11.1952667,8.19526667 Z M9,12.2761333 L9,12.6666667 L9.39053333,12.6666667 L12.0572,10 L11.6666667,9.60946667 L9,12.2761333 Z"></path>
                    </g>
              
</svg>