<?xml version="1.0" encoding="UTF-8"?>
<svg width="16px" height="17px" viewBox="0 0 16 17" version="1.1" xmlns="http://www.w3.org/2000/svg" xmlns:xlink="http://www.w3.org/1999/xlink">
    <title>icon_explore</title>
    <g id="企业级BOM管理" stroke="none" stroke-width="1" fill="none" fill-rule="evenodd">
        <g id="切图" transform="translate(-164, -816)">
            <g id="编组" transform="translate(164, 816.5)">
                <rect id="矩形" fill="#D8D8D8" opacity="0" x="0" y="0" width="16" height="16"></rect>
                <g transform="translate(1, 1)" fill="#FFFFFF" id="形状">
                    <path d="M6.71571039,0.0603319728 C6.89670961,-0.0201106576 7.10332887,-0.0201106576 7.2842791,0.0603319728 C7.2842791,0.0603319728 13.584287,2.86033659 13.584287,2.86033659 C13.8371273,2.97268673 14.0000175,3.22337104 14.0000175,3.5 C14.0000175,3.5 14.0000175,10.5000131 14.0000175,10.5000131 C14.0000175,10.7766535 13.8371273,11.0273238 13.584287,11.1396739 C13.584287,11.1396739 7.2842791,13.9396774 7.2842791,13.9396774 C7.10332887,14.0201075 6.89670961,14.0201075 6.71571039,13.9396774 C6.71571039,13.9396774 0.415703919,11.1396739 0.415703919,11.1396739 C0.162914003,11.0273238 0,10.7766535 0,10.5000131 C0,10.5000131 0,3.5 0,3.5 C0,3.22337104 0.162914003,2.97268673 0.415703919,2.86033659 C0.415703919,2.86033659 6.71571039,0.0603319728 6.71571039,0.0603319728 C6.71571039,0.0603319728 6.71571039,0.0603319728 6.71571039,0.0603319728 Z M1.40000175,4.57713773 C1.40000175,4.57713773 6.30000787,6.75491745 6.30000787,6.75491745 C6.30000787,6.75491745 6.30000787,12.2228553 6.30000787,12.2228553 C6.30000787,12.2228553 1.40000175,10.0450826 1.40000175,10.0450826 C1.40000175,10.0450826 1.40000175,4.57713773 1.40000175,4.57713773 C1.40000175,4.57713773 1.40000175,4.57713773 1.40000175,4.57713773 Z M7.70000962,12.2228553 C7.70000962,12.2228553 12.6000157,10.0450826 12.6000157,10.0450826 C12.6000157,10.0450826 12.6000157,4.57713773 12.6000157,4.57713773 C12.6000157,4.57713773 7.70000962,6.75491745 7.70000962,6.75491745 C7.70000962,6.75491745 7.70000962,12.2228553 7.70000962,12.2228553 C7.70000962,12.2228553 7.70000962,12.2228553 7.70000962,12.2228553 Z M7.00000874,5.53398293 C7.00000874,5.53398293 11.5764745,3.50000439 11.5764745,3.50000439 C11.5764745,3.50000439 7.00000874,1.46602585 7.00000874,1.46602585 C7.00000874,1.46602585 2.42355003,3.50000439 2.42355003,3.50000439 C2.42355003,3.50000439 7.00000874,5.53398293 7.00000874,5.53398293 C7.00000874,5.53398293 7.00000874,5.53398293 7.00000874,5.53398293 Z"></path>
                </g>
            </g>
        </g>
    </g>
</svg>