<?xml version="1.0" encoding="UTF-8"?>
<svg width="30px" height="30px" viewBox="0 0 30 30" version="1.1" xmlns="http://www.w3.org/2000/svg" xmlns:xlink="http://www.w3.org/1999/xlink">
   
                            <g transform="translate(1, 1)">
                                <path d="M4.13636364,1.27272727 C3.96063182,1.27272727 3.81818182,1.41517727 3.81818182,1.59090909 C3.81818182,1.59090909 3.81818182,2.54545455 3.81818182,2.54545455 C3.81818182,2.54545455 9.86363636,2.54545455 9.86363636,2.54545455 C10.7422636,2.54545455 11.4545455,3.25773 11.4545455,4.13636364 C11.4545455,4.13636364 11.4545455,10.1818182 11.4545455,10.1818182 C11.4545455,10.1818182 12.4090909,10.1818182 12.4090909,10.1818182 C12.5848545,10.1818182 12.7272727,10.0394 12.7272727,9.86363636 C12.7272727,9.86363636 12.7272727,1.59090909 12.7272727,1.59090909 C12.7272727,1.41517727 12.5848545,1.27272727 12.4090909,1.27272727 C12.4090909,1.27272727 4.13636364,1.27272727 4.13636364,1.27272727 C4.13636364,1.27272727 4.13636364,1.27272727 4.13636364,1.27272727 Z M11.4545455,11.4545455 C11.4545455,11.4545455 12.4090909,11.4545455 12.4090909,11.4545455 C13.2877182,11.4545455 14,10.7422636 14,9.86363636 C14,9.86363636 14,1.59090909 14,1.59090909 C14,0.712281818 13.2877182,0 12.4090909,0 C12.4090909,0 4.13636364,0 4.13636364,0 C3.25770455,0 2.54545455,0.712281818 2.54545455,1.59090909 C2.54545455,1.59090909 2.54545455,2.54545455 2.54545455,2.54545455 C2.54545455,2.54545455 1.59090909,2.54545455 1.59090909,2.54545455 C0.712275455,2.54545455 0,3.25773 0,4.13636364 C0,4.13636364 0,12.4090909 0,12.4090909 C0,13.2877182 0.712275455,14 1.59090909,14 C1.59090909,14 9.86363636,14 9.86363636,14 C10.7422636,14 11.4545455,13.2877182 11.4545455,12.4090909 C11.4545455,12.4090909 11.4545455,11.4545455 11.4545455,11.4545455 C11.4545455,11.4545455 11.4545455,11.4545455 11.4545455,11.4545455 Z M1.59090909,3.81818182 C1.41518364,3.81818182 1.27272727,3.96063818 1.27272727,4.13636364 C1.27272727,4.13636364 1.27272727,12.4090909 1.27272727,12.4090909 C1.27272727,12.5847909 1.41518364,12.7272727 1.59090909,12.7272727 C1.59090909,12.7272727 9.86363636,12.7272727 9.86363636,12.7272727 C10.0393364,12.7272727 10.1818182,12.5847909 10.1818182,12.4090909 C10.1818182,12.4090909 10.1818182,4.13636364 10.1818182,4.13636364 C10.1818182,3.96063818 10.0393364,3.81818182 9.86363636,3.81818182 C9.86363636,3.81818182 1.59090909,3.81818182 1.59090909,3.81818182 C1.59090909,3.81818182 1.59090909,3.81818182 1.59090909,3.81818182 Z"></path>
                            </g>
                 
</svg>