<?xml version="1.0" encoding="UTF-8"?>
<svg width="18px" height="18px" viewBox="0 0 18 18" version="1.1" xmlns="http://www.w3.org/2000/svg" xmlns:xlink="http://www.w3.org/1999/xlink">
                    <g transform="translate(1, 1)" id="路径">
                        <path d="M7.0277025,0 C7.5109475,0.000634179 7.90218625,0.39289775 7.90155625,0.87614625 C7.90155625,0.87614625 7.89467875,6.125 7.89467875,6.125 C7.89467875,6.125 13.125,6.125 13.125,6.125 C13.6082625,6.125 14,6.516755 14,7 C14,7.483245 13.6082625,7.875 13.125,7.875 C13.125,7.875 7.89238625,7.875 7.89238625,7.875 C7.89238625,7.875 7.8855,13.1261375 7.8855,13.1261375 C7.88487,13.6094 7.49259875,14.0006125 7.00935375,14 C6.5261,13.9993875 6.13487,13.607125 6.1355,13.1238625 C6.1355,13.1238625 6.1423775,7.875 6.1423775,7.875 C6.1423775,7.875 0.875,7.875 0.875,7.875 C0.391750625,7.875 0,7.483245 0,7 C0,6.516755 0.391750625,6.125 0.875,6.125 C0.875,6.125 6.14467,6.125 6.14467,6.125 C6.14467,6.125 6.15155625,0.873852875 6.15155625,0.873852875 C6.15218625,0.390604375 6.5444575,-0.000632590875 7.0277025,0 C7.0277025,0 7.0277025,0 7.0277025,0 Z"></path>
                    </g>
</svg>