<?xml version="1.0" encoding="UTF-8"?>
<svg width="16px" height="16px" viewBox="0 0 16 16" version="1.1" xmlns="http://www.w3.org/2000/svg" xmlns:xlink="http://www.w3.org/1999/xlink">
                                <g transform="translate(1, 1)">
                                    <path d="M3.15,0 C3.536596,0 3.85,0.320149655 3.85,0.715074668 C3.85,0.715074668 3.85,2.50276134 3.85,2.50276134 C3.85,2.50276134 5.6,2.50276134 5.6,2.50276134 C5.986596,2.50276134 6.3,2.82291457 6.3,3.21783601 C6.3,3.61275744 5.986596,3.93291067 5.6,3.93291067 C5.6,3.93291067 3.85,3.93291067 3.85,3.93291067 C3.85,3.93291067 3.85,5.72059734 3.85,5.72059734 C3.85,6.11551878 3.536596,6.43567201 3.15,6.43567201 C2.763404,6.43567201 2.45,6.11551878 2.45,5.72059734 C2.45,5.72059734 2.45,3.93291067 2.45,3.93291067 C2.45,3.93291067 0.7,3.93291067 0.7,3.93291067 C0.3134005,3.93291067 0,3.61275744 0,3.21783601 C0,2.82291457 0.3134005,2.50276134 0.7,2.50276134 C0.7,2.50276134 2.45,2.50276134 2.45,2.50276134 C2.45,2.50276134 2.45,0.715074668 2.45,0.715074668 C2.45,0.320149655 2.763404,0 3.15,0 C3.15,0 3.15,0 3.15,0 Z M7.7,3.21783601 C7.7,2.82291457 8.01339,2.50276134 8.4,2.50276134 C8.4,2.50276134 13.3,2.50276134 13.3,2.50276134 C13.68661,2.50276134 14,2.82291457 14,3.21783601 C14,3.61275744 13.68661,3.93291067 13.3,3.93291067 C13.3,3.93291067 8.4,3.93291067 8.4,3.93291067 C8.01339,3.93291067 7.7,3.61275744 7.7,3.21783601 C7.7,3.21783601 7.7,3.21783601 7.7,3.21783601 Z M0.6749848,8.73420802 C0.948353,8.45497137 1.391565,8.45497137 1.664936,8.73420802 C1.664936,8.73420802 3.149867,10.2511674 3.149867,10.2511674 C3.149867,10.2511674 4.634798,8.73420802 4.634798,8.73420802 C4.908169,8.45497137 5.351381,8.45497137 5.624752,8.73420802 C5.898116,9.01351619 5.898116,9.46622996 5.624752,9.74553813 C5.624752,9.74553813 4.139814,11.262426 4.139814,11.262426 C4.139814,11.262426 5.624717,12.7793139 5.624717,12.7793139 C5.898081,13.0585506 5.898081,13.5113358 5.624717,13.7905725 C5.351346,14.0698092 4.908134,14.0698092 4.634763,13.7905725 C4.634763,13.7905725 3.149867,12.2736846 3.149867,12.2736846 C3.149867,12.2736846 1.664957,13.7905725 1.664957,13.7905725 C1.391593,14.0698092 0.948374,14.0698092 0.6750093,13.7905725 C0.4016418,13.5113358 0.4016418,13.0585506 0.6750086,12.7793139 C0.6750086,12.7793139 2.159913,11.262426 2.159913,11.262426 C2.159913,11.262426 0.6749834,9.74553813 0.6749834,9.74553813 C0.4016166,9.46622996 0.4016173,9.01351619 0.6749848,8.73420802 C0.6749848,8.73420802 0.6749848,8.73420802 0.6749848,8.73420802 Z M7.7,10.0110453 C7.7,9.61610961 8.01339,9.29597068 8.4,9.29597068 C8.4,9.29597068 13.3,9.29597068 13.3,9.29597068 C13.68661,9.29597068 14,9.61610961 14,10.0110453 C14,10.4059811 13.68661,10.72612 13.3,10.72612 C13.3,10.72612 8.4,10.72612 8.4,10.72612 C8.01339,10.72612 7.7,10.4059811 7.7,10.0110453 C7.7,10.0110453 7.7,10.0110453 7.7,10.0110453 Z M7.7,12.871344 C7.7,12.4764083 8.01339,12.1562694 8.4,12.1562694 C8.4,12.1562694 13.3,12.1562694 13.3,12.1562694 C13.68661,12.1562694 14,12.4764083 14,12.871344 C14,13.2662798 13.68661,13.5864187 13.3,13.5864187 C13.3,13.5864187 8.4,13.5864187 8.4,13.5864187 C8.01339,13.5864187 7.7,13.2662798 7.7,12.871344 C7.7,12.871344 7.7,12.871344 7.7,12.871344 Z"></path>
                                </g>
</svg>