<?xml version="1.0" encoding="UTF-8"?>
<svg width="31px" height="30px" viewBox="0 0 31 30" version="1.1" xmlns="http://www.w3.org/2000/svg" xmlns:xlink="http://www.w3.org/1999/xlink">
    <title>icon_operate_5</title>
    <g id="页面-1" stroke="none" stroke-width="1" fill="none" fill-rule="evenodd">
        <g id="切图" transform="translate(-246, -343)">
            <g id="icon_operate_5" transform="translate(246.5, 343)">
                <rect id="矩形" stroke="#F2F2F2" fill="#FFFFFF" x="0.5" y="0.5" width="29" height="29" rx="10"></rect>
                <g id="编组" transform="translate(7, 7)">
                    <rect id="矩形" fill="#D8D8D8" opacity="0" x="0" y="0" width="16" height="16"></rect>
                    <g transform="translate(2.2727, 1)" fill="#1890FF" id="形状">
                        <path d="M1.90909091,0 C2.26054182,0 2.54545455,0.284909545 2.54545455,0.636363636 C2.54545455,0.636363636 10.8181818,0.636363636 10.8181818,0.636363636 C11.0387455,0.636363636 11.2435273,0.750559091 11.3595364,0.938171818 C11.4754818,1.12578455 11.4859818,1.36005545 11.3873455,1.55731545 C11.3873455,1.55731545 10.2569091,3.81818182 10.2569091,3.81818182 C10.2569091,3.81818182 11.3873455,6.07904818 11.3873455,6.07904818 C11.4859818,6.27630818 11.4754818,6.51057273 11.3595364,6.69817273 C11.2435273,6.88577273 11.0387455,7 10.8181818,7 C10.8181818,7 2.54545455,7 2.54545455,7 C2.54545455,7 2.54545455,12.7272727 2.54545455,12.7272727 C2.54545455,12.7272727 3.18181818,12.7272727 3.18181818,12.7272727 C3.53326909,12.7272727 3.81818182,13.0121727 3.81818182,13.3636364 C3.81818182,13.7151 3.53326909,14 3.18181818,14 C3.18181818,14 0.636363636,14 0.636363636,14 C0.284909545,14 0,13.7151 0,13.3636364 C0,13.0121727 0.284909545,12.7272727 0.636363636,12.7272727 C0.636363636,12.7272727 1.27272727,12.7272727 1.27272727,12.7272727 C1.27272727,12.7272727 1.27272727,0.636363636 1.27272727,0.636363636 C1.27272727,0.284909545 1.55764,0 1.90909091,0 C1.90909091,0 1.90909091,0 1.90909091,0 Z M2.54545455,5.72727273 C2.54545455,5.72727273 9.78854545,5.72727273 9.78854545,5.72727273 C9.78854545,5.72727273 8.97629091,4.10277 8.97629091,4.10277 C8.88669091,3.92362091 8.88669091,3.71274273 8.97629091,3.53359364 C8.97629091,3.53359364 9.78854545,1.90909091 9.78854545,1.90909091 C9.78854545,1.90909091 2.54545455,1.90909091 2.54545455,1.90909091 C2.54545455,1.90909091 2.54545455,5.72727273 2.54545455,5.72727273 C2.54545455,5.72727273 2.54545455,5.72727273 2.54545455,5.72727273 Z"></path>
                    </g>
                </g>
            </g>
        </g>
    </g>
</svg>