<?xml version="1.0" encoding="UTF-8"?>
<svg width="30px" height="30px" viewBox="0 0 30 30" version="1.1" xmlns="http://www.w3.org/2000/svg" xmlns:xlink="http://www.w3.org/1999/xlink">
    <title>icon_operate_17</title>
    <g id="页面-1" stroke="none" stroke-width="1" fill="none" fill-rule="evenodd">
        <g id="切图" transform="translate(-847, -343)">
            <g id="icon_operate_17" transform="translate(847, 343)">
                <rect id="矩形" stroke="#F2F2F2" fill="#FFFFFF" x="0.5" y="0.5" width="29" height="29" rx="10"></rect>
                <g id="编组" transform="translate(7, 7)">
                    <rect id="矩形" fill="#D8D8D8" opacity="0" x="0" y="0" width="16" height="16"></rect>
                    <path d="M14.8058566,3.1963892 C15.0655897,3.45736234 15.0645897,3.87946803 14.8035899,4.13919451 C14.8035899,4.13919451 6.09526961,12.8058548 6.09526961,12.8058548 C5.83518314,13.0647213 5.41481011,13.0647213 5.15472364,12.8058548 C5.15472364,12.8058548 1.19639321,8.8664577 1.19639321,8.8664577 C0.9354208,8.60673123 0.934408867,8.18462487 1.19413321,7.92365173 C1.45385769,7.66267859 1.87596604,7.66166525 2.13693918,7.92139173 C2.13693918,7.92139173 5.62499663,11.3927892 5.62499663,11.3927892 C5.62499663,11.3927892 13.8630572,3.19412853 13.8630572,3.19412853 C14.1240571,2.93440392 14.5461234,2.93541619 14.8058566,3.1963892 C14.8058566,3.1963892 14.8058566,3.1963892 14.8058566,3.1963892 Z" id="路径" fill="#1890FF"></path>
                </g>
            </g>
        </g>
    </g>
</svg>