<?xml version="1.0" encoding="UTF-8"?>
<svg width="16px" height="16px" viewBox="0 0 16 16" version="1.1" xmlns="http://www.w3.org/2000/svg" xmlns:xlink="http://www.w3.org/1999/xlink">
                    <g transform="translate(1.7, 1)" id="形状">
                        <path d="M7.7,2.45 C7.7,1.0969 8.7969,0 10.15,0 C11.5031,0 12.6,1.0969 12.6,2.45 C12.6,3.803086 11.5031,4.9 10.15,4.9 C9.46603,4.9 8.84744,4.619699 8.40301,4.167688 C8.40301,4.167688 4.811149,6.343862 4.811149,6.343862 C4.869053,6.552693 4.9,6.772731 4.9,7 C4.9,7.20419 4.875024,7.4025 4.82797,7.59213 C4.82797,7.59213 8.48477,9.75296 8.48477,9.75296 C8.92185,9.34773 9.50698,9.1 10.15,9.1 C11.5031,9.1 12.6,10.1969 12.6,11.55 C12.6,12.9031 11.5031,14 10.15,14 C8.7969,14 7.7,12.9031 7.7,11.55 C7.7,11.34588 7.72499,11.14757 7.77203,10.95794 C7.77203,10.95794 4.115223,8.79711 4.115223,8.79711 C3.67815,9.20227 3.092999,9.45 2.45,9.45 C1.096914,9.45 0,8.3531 0,7 C0,5.646907 1.096914,4.55 2.45,4.55 C3.069136,4.55 3.634638,4.779663 4.06595,5.15844 C4.06595,5.15844 7.74669,2.928422 7.74669,2.928422 C7.71603,2.773687 7.7,2.613723 7.7,2.45 C7.7,2.45 7.7,2.45 7.7,2.45 Z M10.15,1.4 C9.57012,1.4 9.1,1.870106 9.1,2.45 C9.1,3.029887 9.57012,3.5 10.15,3.5 C10.72988,3.5 11.2,3.029887 11.2,2.45 C11.2,1.870106 10.72988,1.4 10.15,1.4 C10.15,1.4 10.15,1.4 10.15,1.4 Z M2.45,5.95 C1.870106,5.95 1.4,6.420113 1.4,7 C1.4,7.57988 1.870106,8.05 2.45,8.05 C3.029887,8.05 3.5,7.57988 3.5,7 C3.5,6.420113 3.029887,5.95 2.45,5.95 C2.45,5.95 2.45,5.95 2.45,5.95 Z M10.15,10.5 C9.57012,10.5 9.1,10.97012 9.1,11.55 C9.1,12.12988 9.57012,12.6 10.15,12.6 C10.72988,12.6 11.2,12.12988 11.2,11.55 C11.2,10.97012 10.72988,10.5 10.15,10.5 C10.15,10.5 10.15,10.5 10.15,10.5 Z"></path>
                    </g>
</svg>