<?xml version="1.0" encoding="UTF-8"?>
<svg width="16px" height="16px" viewBox="0 0 16 16" version="1.1" xmlns="http://www.w3.org/2000/svg" xmlns:xlink="http://www.w3.org/1999/xlink">
                                <g transform="translate(1, 1)">
                                    <path d="M0.203777,0.2062767 C0.2707012,0.1390067 0.347921,0.0881727 0.4304055,0.05380004 C0.5133828,0.01914199 0.604695,0 0.700238,0 L3.85,0 C4.236596,0 4.55,0.3134005 4.55,0.7 C4.55,1.086596 4.236596,1.4 3.85,1.4 L2.402092,1.4 L4.692471,3.667356 C4.967214,3.939341 4.969454,4.382553 4.697469,4.657296 C4.425484,4.932039 3.982272,4.934279 3.707529,4.662294 L1.4,2.377949 L1.4,3.85 C1.4,4.236596 1.086596,4.55 0.7,4.55 C0.3134005,4.55 0,4.236596 0,3.85 L0,0.7 C0,0.50953 0.0760732,0.3368281 0.199493,0.2106195 C0.2009147,0.2091656 0.2023427,0.207718 0.203777,0.2062767 Z M12.6,2.354772 L10.29497,4.659802 C10.02162,4.933166 9.57838,4.933166 9.30503,4.659802 C9.03168,4.386431 9.03168,3.943219 9.30503,3.669848 L11.57485,1.4 L10.15,1.4 C9.76339,1.4 9.45,1.086596 9.45,0.7 C9.45,0.3134005 9.76339,0 10.15,0 L13.3,0 C13.68661,0 14,0.3134005 14,0.7 L14,3.85 C14,4.236596 13.68661,4.55 13.3,4.55 C12.91339,4.55 12.6,4.236596 12.6,3.85 L12.6,2.354772 Z M4.697469,9.30755 C4.969454,9.5823 4.967214,10.02547 4.692471,10.29749 L2.36656,12.6000084 L3.85,12.6000084 C4.236596,12.6000084 4.55,12.91339 4.55,13.3 C4.55,13.68661 4.236596,14 3.85,14 L0.7,14 C0.3134005,14 0,13.68661 0,13.3 L0,10.15 C0,9.76339 0.3134005,9.45 0.7,9.45 C1.086596,9.45 1.4,9.76339 1.4,10.15 L1.4,11.58689 L3.707529,9.30251 C3.982272,9.03056 4.425484,9.0328 4.697469,9.30755 Z M10.33018,9.30503 C10.05683,9.03168 9.61359,9.03168 9.34024,9.30503 C9.06689,9.57838 9.06689,10.02162 9.34024,10.29497 L11.64527,12.6 L10.15,12.6 C9.76339,12.6 9.45,12.91339 9.45,13.3 C9.45,13.68661 9.76339,14 10.15,14 L13.3,14 C13.68661,14 14,13.68661 14,13.3 L14,10.15 C14,9.76339 13.68661,9.45 13.3,9.45 C12.91339,9.45 12.6,9.76339 12.6,10.15 L12.6,11.57485 L10.33018,9.30503 Z"></path>
                                </g>
</svg>