<?xml version="1.0" encoding="UTF-8"?>
<svg width="16px" height="16px" viewBox="0 0 16 16" version="1.1" xmlns="http://www.w3.org/2000/svg" xmlns:xlink="http://www.w3.org/1999/xlink">
  
                    <g transform="translate(1, 1)" id="形状">
                        <path d="M5.20656818,1.79338727 C5.20656818,0.802919091 6.00951909,0 7,0 C7.99043636,0 8.79333636,0.802919091 8.79333636,1.79338727 C8.79333636,2.78386182 7.99043636,3.58676818 7,3.58676818 C6.00952545,3.58676818 5.20656818,2.78386182 5.20656818,1.79338727 C5.20656818,1.79338727 5.20656818,1.79338727 5.20656818,1.79338727 Z M7,1.27272727 C6.71242727,1.27272727 6.47932727,1.50584636 6.47932727,1.79338727 C6.47932727,2.08092818 6.71242727,2.31404091 7,2.31404091 C7.28750909,2.31404091 7.52060909,2.08092818 7.52060909,1.79338727 C7.52060909,1.50584636 7.28750909,1.27272727 7,1.27272727 C7,1.27272727 7,1.27272727 7,1.27272727 Z M4.75884182,2.25614455 C4.94669,2.55318636 4.85816545,2.94626182 4.56112364,3.13411 C3.98618182,3.49769636 3.49769636,3.98618182 3.13411,4.56112364 C2.94626182,4.85816545 2.55318636,4.94669 2.25614455,4.75884182 C1.95910273,4.57099364 1.87057818,4.17791818 2.05842636,3.88087636 C2.52287636,3.14643636 3.14643636,2.52287636 3.88087636,2.05842636 C4.17791818,1.87057818 4.57099364,1.95910273 4.75884182,2.25614455 C4.75884182,2.25614455 4.75884182,2.25614455 4.75884182,2.25614455 Z M9.24114545,2.25615727 C9.42893636,1.95910909 9.82201818,1.87057818 10.1190727,2.05842 C10.8535636,2.52287636 11.4770727,3.14644273 11.9415545,3.88085727 C12.1294091,4.17789273 12.0408909,4.57097455 11.7439,4.75882909 C11.4468455,4.94668364 11.0537636,4.85817818 10.8659091,4.56114273 C10.5022909,3.98617545 10.0138182,3.49769636 9.43886364,3.13411636 C9.14180909,2.94628091 9.05329091,2.55319909 9.24114545,2.25615727 C9.24114545,2.25615727 9.24114545,2.25615727 9.24114545,2.25615727 Z M0,7 C0,6.00951909 0.802919091,5.20656818 1.79338727,5.20656818 C2.78386182,5.20656818 3.58676818,6.00952545 3.58676818,7 C3.58676818,7.99043636 2.78386182,8.79333636 1.79338727,8.79333636 C0.802919091,8.79333636 0,7.99043636 0,7 C0,7 0,7 0,7 Z M1.79338727,6.47932727 C1.50584636,6.47932727 1.27272727,6.71242727 1.27272727,7 C1.27272727,7.28750909 1.50584636,7.52060909 1.79338727,7.52060909 C2.08092818,7.52060909 2.31404091,7.28750909 2.31404091,7 C2.31404091,6.71242727 2.08092818,6.47932727 1.79338727,6.47932727 C1.79338727,6.47932727 1.79338727,6.47932727 1.79338727,6.47932727 Z M10.4132,7 C10.4132,6.00950636 11.2161636,5.20656818 12.2066636,5.20656818 C13.1971,5.20656818 14,6.00953182 14,7 C14,7.99037273 13.1971,8.79333636 12.2066636,8.79333636 C11.2161636,8.79333636 10.4132,7.99043636 10.4132,7 C10.4132,7 10.4132,7 10.4132,7 Z M12.2066636,6.47932727 C11.9190909,6.47932727 11.6859273,6.71242727 11.6859273,7 C11.6859273,7.28750909 11.9190909,7.52060909 12.2066636,7.52060909 C12.4941727,7.52060909 12.7272727,7.28757273 12.7272727,7 C12.7272727,6.71236364 12.4941727,6.47932727 12.2066636,6.47932727 C12.2066636,6.47932727 12.2066636,6.47932727 12.2066636,6.47932727 Z M2.25615727,9.24114545 C2.55319909,9.05329091 2.94628091,9.14180909 3.13411636,9.43886364 C3.49769636,10.0138182 3.98617545,10.5022909 4.56114273,10.8659091 C4.85817818,11.0537636 4.94668364,11.4468455 4.75882909,11.7439 C4.57097455,12.0408909 4.17789273,12.1294091 3.88085727,11.9415545 C3.14644273,11.4770727 2.52287636,10.8535636 2.05842,10.1190727 C1.87057818,9.82201818 1.95910909,9.42893636 2.25615727,9.24114545 C2.25615727,9.24114545 2.25615727,9.24114545 2.25615727,9.24114545 Z M11.7438364,9.24114545 C12.0408909,9.429 12.1294091,9.82208182 11.9415545,10.1190727 C11.4770727,10.8535636 10.8535636,11.4770727 10.1190727,11.9415545 C9.82208182,12.1294091 9.429,12.0408909 9.24114545,11.7438364 C9.05329091,11.4468455 9.14180909,11.0537636 9.43886364,10.8659091 C10.0138182,10.5022909 10.5022909,10.0138182 10.8659091,9.43886364 C11.0537636,9.14180909 11.4468455,9.05329091 11.7438364,9.24114545 C11.7438364,9.24114545 11.7438364,9.24114545 11.7438364,9.24114545 Z M5.20656818,12.2066636 C5.20656818,11.2161636 6.00950636,10.4132 7,10.4132 C7.99043636,10.4132 8.79333636,11.2161636 8.79333636,12.2066636 C8.79333636,13.1971 7.99037273,14 7,14 C6.00953182,14 5.20656818,13.1971 5.20656818,12.2066636 C5.20656818,12.2066636 5.20656818,12.2066636 5.20656818,12.2066636 Z M7,11.6859273 C6.71242727,11.6859273 6.47932727,11.9190909 6.47932727,12.2066636 C6.47932727,12.4941727 6.71236364,12.7272727 7,12.7272727 C7.28757273,12.7272727 7.52060909,12.4941727 7.52060909,12.2066636 C7.52060909,11.9190909 7.28750909,11.6859273 7,11.6859273 C7,11.6859273 7,11.6859273 7,11.6859273 Z"></path>
                    </g>
               
</svg>