<?xml version="1.0" encoding="UTF-8"?>
<svg width="16px" height="16px" viewBox="0 0 16 16" version="1.1" xmlns="http://www.w3.org/2000/svg" xmlns:xlink="http://www.w3.org/1999/xlink">
                    <g transform="translate(1.7, 1)" fill-rule="nonzero" id="形状">
                        <path d="M8.01303999,6.22610101 C8.35883999,6.05320801 8.49897999,5.63273201 8.32607999,5.28695301 C8.15317999,4.94116701 7.73275999,4.80100601 7.38695999,4.97389901 C7.38695999,4.97389901 8.01303999,6.22610101 8.01303999,6.22610101 C8.01303999,6.22610101 8.01303999,6.22610101 8.01303999,6.22610101 Z M11.9,3.50000001 C11.9,3.50000001 12.6,3.50000001 12.6,3.50000001 C12.6,3.23486101 12.4502,2.99247201 12.21304,2.87389901 C12.21304,2.87389901 11.9,3.50000001 11.9,3.50000001 C11.9,3.50000001 11.9,3.50000001 11.9,3.50000001 Z M10.18696,3.57389901 C9.84115999,3.74679201 9.70101999,4.16726801 9.87391999,4.51304701 C10.04682,4.85883301 10.46724,4.99899401 10.81304,4.82610101 C10.81304,4.82610101 10.18696,3.57389901 10.18696,3.57389901 C10.18696,3.57389901 10.18696,3.57389901 10.18696,3.57389901 Z M10.81304,2.17389901 C10.46724,2.00100601 10.04682,2.14116701 9.87391999,2.48695301 C9.70101999,2.83273201 9.84115999,3.25320801 10.18696,3.42610101 C10.18696,3.42610101 10.81304,2.17389901 10.81304,2.17389901 C10.81304,2.17389901 10.81304,2.17389901 10.81304,2.17389901 Z M6.29999999,0.699999658 C6.29999999,0.699999658 6.61304699,0.0739004174 6.61304699,0.0739004174 C6.41598299,-0.0246334725 6.18401699,-0.0246334725 5.98695299,0.0739004174 C5.98695299,0.0739004174 6.29999999,0.699999658 6.29999999,0.699999658 C6.29999999,0.699999658 6.29999999,0.699999658 6.29999999,0.699999658 Z M7.38695999,2.02610101 C7.73275999,2.19899401 8.15317999,2.05883301 8.32607999,1.71304702 C8.49897999,1.36726102 8.35883999,0.946792016 8.01303999,0.773899017 C8.01303999,0.773899017 7.38695999,2.02610101 7.38695999,2.02610101 C7.38695999,2.02610101 7.38695999,2.02610101 7.38695999,2.02610101 Z M4.58695299,0.773899017 C4.24116699,0.946792016 4.10100599,1.36726102 4.27389899,1.71304702 C4.44679199,2.05883301 4.86726799,2.19899401 5.21304699,2.02610101 C5.21304699,2.02610101 4.58695299,0.773899017 4.58695299,0.773899017 C4.58695299,0.773899017 4.58695299,0.773899017 4.58695299,0.773899017 Z M0.699999999,3.50000001 C0.699999999,3.50000001 0.3869502,2.87389901 0.3869502,2.87389901 C0.1498014,2.99247201 0,3.23486101 0,3.50000001 C0,3.50000001 0.699999999,3.50000001 0.699999999,3.50000001 C0.699999999,3.50000001 0.699999999,3.50000001 0.699999999,3.50000001 Z M2.413047,3.42610101 C2.758833,3.25320801 2.898994,2.83273201 2.726101,2.48695301 C2.553208,2.14116701 2.132732,2.00100601 1.786953,2.17389901 C1.786953,2.17389901 2.413047,3.42610101 2.413047,3.42610101 C2.413047,3.42610101 2.413047,3.42610101 2.413047,3.42610101 Z M1.786953,4.82610101 C2.132732,4.99899401 2.553208,4.85883301 2.726101,4.51304701 C2.898994,4.16726801 2.758833,3.74679201 2.413047,3.57389901 C2.413047,3.57389901 1.786953,4.82610101 1.786953,4.82610101 C1.786953,4.82610101 1.786953,4.82610101 1.786953,4.82610101 Z M5.21304699,4.97389901 C4.86726799,4.80100601 4.44679199,4.94116701 4.27389899,5.28695301 C4.10100599,5.63273201 4.24116699,6.05320801 4.58695299,6.22610101 C4.58695299,6.22610101 5.21304699,4.97389901 5.21304699,4.97389901 C5.21304699,4.97389901 5.21304699,4.97389901 5.21304699,4.97389901 Z M6.29999999,13.3 C6.29999999,13.3 5.98695299,13.92608 5.98695299,13.92608 C6.18401699,14.02464 6.41598299,14.02464 6.61304699,13.92608 C6.61304699,13.92608 6.29999999,13.3 6.29999999,13.3 C6.29999999,13.3 6.29999999,13.3 6.29999999,13.3 Z M5.21304699,11.97392 C4.86726799,11.80102 4.44679199,11.94116 4.27389899,12.28696 C4.10100599,12.63276 4.24116699,13.05318 4.58695299,13.22608 C4.58695299,13.22608 5.21304699,11.97392 5.21304699,11.97392 C5.21304699,11.97392 5.21304699,11.97392 5.21304699,11.97392 Z M1.786953,11.82608 C2.132732,11.99898 2.553208,11.85884 2.726101,11.51304 C2.898994,11.16724 2.758833,10.74682 2.413047,10.57392 C2.413047,10.57392 1.786953,11.82608 1.786953,11.82608 C1.786953,11.82608 1.786953,11.82608 1.786953,11.82608 Z M0.699999999,10.5 C0.699999999,10.5 0,10.5 0,10.5 C0,10.76516 0.1498014,11.0075 0.3869502,11.12608 C0.3869502,11.12608 0.699999999,10.5 0.699999999,10.5 C0.699999999,10.5 0.699999999,10.5 0.699999999,10.5 Z M11.9,10.5 C11.9,10.5 12.21304,11.12608 12.21304,11.12608 C12.4502,11.0075 12.6,10.76516 12.6,10.5 C12.6,10.5 11.9,10.5 11.9,10.5 C11.9,10.5 11.9,10.5 11.9,10.5 Z M10.18696,10.57392 C9.84115999,10.74682 9.70101999,11.16724 9.87391999,11.51304 C10.04682,11.85884 10.46724,11.99898 10.81304,11.82608 C10.81304,11.82608 10.18696,10.57392 10.18696,10.57392 C10.18696,10.57392 10.18696,10.57392 10.18696,10.57392 Z M8.01303999,13.22608 C8.35883999,13.05318 8.49897999,12.63276 8.32607999,12.28696 C8.15317999,11.94116 7.73275999,11.80102 7.38695999,11.97392 C7.38695999,11.97392 8.01303999,13.22608 8.01303999,13.22608 C8.01303999,13.22608 8.01303999,13.22608 8.01303999,13.22608 Z M11.2,5.25000001 C11.2,5.63659601 11.51339,5.95000001 11.9,5.95000001 C12.28661,5.95000001 12.6,5.63659601 12.6,5.25000001 C12.6,5.25000001 11.2,5.25000001 11.2,5.25000001 C11.2,5.25000001 11.2,5.25000001 11.2,5.25000001 Z M12.6,8.75000001 C12.6,8.36339001 12.28661,8.05000001 11.9,8.05000001 C11.51339,8.05000001 11.2,8.36339001 11.2,8.75000001 C11.2,8.75000001 12.6,8.75000001 12.6,8.75000001 C12.6,8.75000001 12.6,8.75000001 12.6,8.75000001 Z M0,5.25000001 C0,5.63659601 0.3134005,5.95000001 0.699999999,5.95000001 C1.086596,5.95000001 1.4,5.63659601 1.4,5.25000001 C1.4,5.25000001 0,5.25000001 0,5.25000001 C0,5.25000001 0,5.25000001 0,5.25000001 Z M1.4,8.75000001 C1.4,8.36339001 1.086596,8.05000001 0.699999999,8.05000001 C0.3134005,8.05000001 0,8.36339001 0,8.75000001 C0,8.75000001 1.4,8.75000001 1.4,8.75000001 C1.4,8.75000001 1.4,8.75000001 1.4,8.75000001 Z M5.59999999,8.05000001 C5.59999999,8.43661001 5.91340399,8.75000001 6.29999999,8.75000001 C6.68660299,8.75000001 6.99999999,8.43661001 6.99999999,8.05000001 C6.99999999,8.05000001 5.59999999,8.05000001 5.59999999,8.05000001 C5.59999999,8.05000001 5.59999999,8.05000001 5.59999999,8.05000001 Z M6.99999999,11.55 C6.99999999,11.16339 6.68660299,10.85 6.29999999,10.85 C5.91340399,10.85 5.59999999,11.16339 5.59999999,11.55 C5.59999999,11.55 6.99999999,11.55 6.99999999,11.55 C6.99999999,11.55 6.99999999,11.55 6.99999999,11.55 Z M7.38695999,4.97389901 C7.38695999,4.97389901 5.98695299,5.67389901 5.98695299,5.67389901 C5.98695299,5.67389901 6.61304699,6.92610101 6.61304699,6.92610101 C6.61304699,6.92610101 8.01303999,6.22610101 8.01303999,6.22610101 C8.01303999,6.22610101 7.38695999,4.97389901 7.38695999,4.97389901 C7.38695999,4.97389901 7.38695999,4.97389901 7.38695999,4.97389901 Z M11.58696,2.87389901 C11.58696,2.87389901 10.18696,3.57389901 10.18696,3.57389901 C10.18696,3.57389901 10.81304,4.82610101 10.81304,4.82610101 C10.81304,4.82610101 12.21304,4.12610101 12.21304,4.12610101 C12.21304,4.12610101 11.58696,2.87389901 11.58696,2.87389901 C11.58696,2.87389901 11.58696,2.87389901 11.58696,2.87389901 Z M10.18696,3.42610101 C10.18696,3.42610101 11.58696,4.12610101 11.58696,4.12610101 C11.58696,4.12610101 12.21304,2.87389901 12.21304,2.87389901 C12.21304,2.87389901 10.81304,2.17389901 10.81304,2.17389901 C10.81304,2.17389901 10.18696,3.42610101 10.18696,3.42610101 C10.18696,3.42610101 10.18696,3.42610101 10.18696,3.42610101 Z M5.98695299,1.32610102 C5.98695299,1.32610102 7.38695999,2.02610101 7.38695999,2.02610101 C7.38695999,2.02610101 8.01303999,0.773899017 8.01303999,0.773899017 C8.01303999,0.773899017 6.61304699,0.0739004174 6.61304699,0.0739004174 C6.61304699,0.0739004174 5.98695299,1.32610102 5.98695299,1.32610102 C5.98695299,1.32610102 5.98695299,1.32610102 5.98695299,1.32610102 Z M5.21304699,2.02610101 C5.21304699,2.02610101 6.61304699,1.32610102 6.61304699,1.32610102 C6.61304699,1.32610102 5.98695299,0.0739004174 5.98695299,0.0739004174 C5.98695299,0.0739004174 4.58695299,0.773899017 4.58695299,0.773899017 C4.58695299,0.773899017 5.21304699,2.02610101 5.21304699,2.02610101 C5.21304699,2.02610101 5.21304699,2.02610101 5.21304699,2.02610101 Z M1.013047,4.12610101 C1.013047,4.12610101 2.413047,3.42610101 2.413047,3.42610101 C2.413047,3.42610101 1.786953,2.17389901 1.786953,2.17389901 C1.786953,2.17389901 0.3869502,2.87389901 0.3869502,2.87389901 C0.3869502,2.87389901 1.013047,4.12610101 1.013047,4.12610101 C1.013047,4.12610101 1.013047,4.12610101 1.013047,4.12610101 Z M2.413047,3.57389901 C2.413047,3.57389901 1.013047,2.87389901 1.013047,2.87389901 C1.013047,2.87389901 0.3869502,4.12610101 0.3869502,4.12610101 C0.3869502,4.12610101 1.786953,4.82610101 1.786953,4.82610101 C1.786953,4.82610101 2.413047,3.57389901 2.413047,3.57389901 C2.413047,3.57389901 2.413047,3.57389901 2.413047,3.57389901 Z M6.61304699,5.67389901 C6.61304699,5.67389901 5.21304699,4.97389901 5.21304699,4.97389901 C5.21304699,4.97389901 4.58695299,6.22610101 4.58695299,6.22610101 C4.58695299,6.22610101 5.98695299,6.92610101 5.98695299,6.92610101 C5.98695299,6.92610101 6.61304699,5.67389901 6.61304699,5.67389901 C6.61304699,5.67389901 6.61304699,5.67389901 6.61304699,5.67389901 Z M6.61304699,12.67392 C6.61304699,12.67392 5.21304699,11.97392 5.21304699,11.97392 C5.21304699,11.97392 4.58695299,13.22608 4.58695299,13.22608 C4.58695299,13.22608 5.98695299,13.92608 5.98695299,13.92608 C5.98695299,13.92608 6.61304699,12.67392 6.61304699,12.67392 C6.61304699,12.67392 6.61304699,12.67392 6.61304699,12.67392 Z M2.413047,10.57392 C2.413047,10.57392 1.013047,9.87392001 1.013047,9.87392001 C1.013047,9.87392001 0.3869502,11.12608 0.3869502,11.12608 C0.3869502,11.12608 1.786953,11.82608 1.786953,11.82608 C1.786953,11.82608 2.413047,10.57392 2.413047,10.57392 C2.413047,10.57392 2.413047,10.57392 2.413047,10.57392 Z M11.58696,9.87392001 C11.58696,9.87392001 10.18696,10.57392 10.18696,10.57392 C10.18696,10.57392 10.81304,11.82608 10.81304,11.82608 C10.81304,11.82608 12.21304,11.12608 12.21304,11.12608 C12.21304,11.12608 11.58696,9.87392001 11.58696,9.87392001 C11.58696,9.87392001 11.58696,9.87392001 11.58696,9.87392001 Z M7.38695999,11.97392 C7.38695999,11.97392 5.98695299,12.67392 5.98695299,12.67392 C5.98695299,12.67392 6.61304699,13.92608 6.61304699,13.92608 C6.61304699,13.92608 8.01303999,13.22608 8.01303999,13.22608 C8.01303999,13.22608 7.38695999,11.97392 7.38695999,11.97392 C7.38695999,11.97392 7.38695999,11.97392 7.38695999,11.97392 Z M12.6,5.25000001 C12.6,5.25000001 12.6,3.50000001 12.6,3.50000001 C12.6,3.50000001 11.2,3.50000001 11.2,3.50000001 C11.2,3.50000001 11.2,5.25000001 11.2,5.25000001 C11.2,5.25000001 12.6,5.25000001 12.6,5.25000001 C12.6,5.25000001 12.6,5.25000001 12.6,5.25000001 Z M12.6,10.5 C12.6,10.5 12.6,8.75000001 12.6,8.75000001 C12.6,8.75000001 11.2,8.75000001 11.2,8.75000001 C11.2,8.75000001 11.2,10.5 11.2,10.5 C11.2,10.5 12.6,10.5 12.6,10.5 C12.6,10.5 12.6,10.5 12.6,10.5 Z M1.4,5.25000001 C1.4,5.25000001 1.4,3.50000001 1.4,3.50000001 C1.4,3.50000001 0,3.50000001 0,3.50000001 C0,3.50000001 0,5.25000001 0,5.25000001 C0,5.25000001 1.4,5.25000001 1.4,5.25000001 C1.4,5.25000001 1.4,5.25000001 1.4,5.25000001 Z M1.4,10.5 C1.4,10.5 1.4,8.75000001 1.4,8.75000001 C1.4,8.75000001 0,8.75000001 0,8.75000001 C0,8.75000001 0,10.5 0,10.5 C0,10.5 1.4,10.5 1.4,10.5 C1.4,10.5 1.4,10.5 1.4,10.5 Z M5.59999999,6.30000001 C5.59999999,6.30000001 5.59999999,8.05000001 5.59999999,8.05000001 C5.59999999,8.05000001 6.99999999,8.05000001 6.99999999,8.05000001 C6.99999999,8.05000001 6.99999999,6.30000001 6.99999999,6.30000001 C6.99999999,6.30000001 5.59999999,6.30000001 5.59999999,6.30000001 C5.59999999,6.30000001 5.59999999,6.30000001 5.59999999,6.30000001 Z M5.59999999,11.55 C5.59999999,11.55 5.59999999,13.3 5.59999999,13.3 C5.59999999,13.3 6.99999999,13.3 6.99999999,13.3 C6.99999999,13.3 6.99999999,11.55 6.99999999,11.55 C6.99999999,11.55 5.59999999,11.55 5.59999999,11.55 C5.59999999,11.55 5.59999999,11.55 5.59999999,11.55 Z"></path>
                    </g>
</svg>