<?xml version="1.0" encoding="UTF-8"?>
<svg width="16px" height="17px" viewBox="0 0 16 17" version="1.1" xmlns="http://www.w3.org/2000/svg" xmlns:xlink="http://www.w3.org/1999/xlink">
    <title>icon_attribute</title>
    <g id="企业级BOM管理" stroke="none" stroke-width="1" fill="none" fill-rule="evenodd">
        <g id="切图" transform="translate(-345, -816)">
            <g id="icon_attribute" transform="translate(345, 816.5)">
                <rect id="矩形" fill="#D8D8D8" opacity="0" x="0" y="0" width="16" height="16"></rect>
                <g id="编组" transform="translate(1, 1)" fill="#FFFFFF">
                    <path d="M7,0 C5.06719182,0 3.31632,0.784203636 2.05025545,2.05024909 C0.78421,3.31631364 0,5.06719182 0,7 C0,8.93282727 0.784203636,10.6836545 2.05025545,11.9497636 C3.31632,13.2158091 5.06719182,14 7,14 C8.93282727,14 10.6836545,13.2158091 11.9497636,11.9497636 C13.2158091,10.6836545 14,8.93282727 14,7 C14,5.06719182 13.2158091,3.31631364 11.9497636,2.05024909 C10.6836545,0.784197273 8.93282727,0 7,0 Z M2.95020091,2.95020727 C3.98735273,1.91307455 5.41829909,1.27272727 7,1.27272727 C8.58168182,1.27272727 10.0126727,1.91307455 11.0497545,2.95020727 C12.0869,3.98735273 12.7272727,5.41829909 12.7272727,7 C12.7272727,8.58168182 12.0869,10.0126727 11.0497545,11.0497545 C10.0126727,12.0869 8.58168182,12.7272727 7,12.7272727 C5.41829909,12.7272727 3.98735273,12.0869 2.95020727,11.0497545 C1.91307455,10.0126727 1.27272727,8.58168182 1.27272727,7 C1.27272727,5.41829909 1.91306818,3.98735909 2.95020091,2.95020727 Z M7,2.74431818 C5.59418364,2.74431818 4.45454545,3.88396273 4.45454545,5.28977273 C4.45454545,5.64123 4.73945818,5.92613636 5.09090909,5.92613636 C5.44236636,5.92613636 5.72727273,5.64123 5.72727273,5.28977273 C5.72727273,4.58687091 6.29709818,4.01704545 7,4.01704545 C7.70292727,4.01704545 8.27272727,4.58687091 8.27272727,5.28977273 C8.27272727,5.99268091 7.70292727,6.5625 7,6.5625 C6.64853636,6.5625 6.36363636,6.8474 6.36363636,7.19886364 L6.36363636,8.47159091 C6.36363636,8.82305455 6.64853636,9.10795455 7,9.10795455 C7.35146364,9.10795455 7.63636364,8.82305455 7.63636364,8.47159091 L7.63636364,7.75504545 C8.73421818,7.47243636 9.54545455,6.47582727 9.54545455,5.28977273 C9.54545455,3.88396273 8.40579091,2.74431818 7,2.74431818 Z M7,11.3352273 C7.43928182,11.3352273 7.79545455,10.9790545 7.79545455,10.5397727 C7.79545455,10.1004909 7.43928182,9.74431818 7,9.74431818 C6.56071818,9.74431818 6.20454545,10.1004909 6.20454545,10.5397727 C6.20454545,10.9790545 6.56071818,11.3352273 7,11.3352273 Z" id="形状"></path>
                </g>
            </g>
        </g>
    </g>
</svg>