<?xml version="1.0" encoding="UTF-8"?>
<svg width="16px" height="16px" viewBox="0 0 16 16" version="1.1" xmlns="http://www.w3.org/2000/svg" xmlns:xlink="http://www.w3.org/1999/xlink">
                    <g id="编组" transform="translate(1, 0.7099)">
                        <g transform="translate(6.8228, 7) rotate(-270) translate(-6.8228, -7)translate(-0.1772, 0.8312)" fill="#1890FF" id="形状">
                            <path d="M6.32621799,0.228482173 C6.32621799,0.228482173 9.69883544,0.228482173 9.69883544,0.228482173 C10.0092849,0.228482173 10.2609383,0.484443055 10.2609383,0.80018074 C10.2609383,1.11591842 10.0092849,1.37187931 9.69883544,1.37187931 C9.69883544,1.37187931 6.8883209,1.37187931 6.8883209,1.37187931 C6.8883209,1.37187931 6.8883209,5.37376928 6.8883209,5.37376928 C6.8883209,5.37376928 9.69883544,5.37376928 9.69883544,5.37376928 C10.0092849,5.37376928 10.2609383,5.62971872 10.2609383,5.94546784 C10.2609383,6.26121696 10.0092849,6.51716641 9.69883544,6.51716641 C9.69883544,6.51716641 6.8883209,6.51716641 6.8883209,6.51716641 C6.8883209,6.51716641 6.8883209,10.5190564 6.8883209,10.5190564 C6.8883209,10.5190564 9.69883544,10.5190564 9.69883544,10.5190564 C10.0092849,10.5190564 10.2609383,10.7750058 10.2609383,11.0907549 C10.2609383,11.4065041 10.0092849,11.6624535 9.69883544,11.6624535 C9.69883544,11.6624535 6.32621799,11.6624535 6.32621799,11.6624535 C6.01577979,11.6624535 5.76411508,11.4065041 5.76411508,11.0907549 C5.76411508,11.0907549 5.76411508,6.51716641 5.76411508,6.51716641 C5.76411508,6.51716641 5.35739428,6.51716641 4.54395268,6.51716641 L4.54395268,5.37376928 C5.35739428,5.37376928 5.76411508,5.37376928 5.76411508,5.37376928 C5.76411508,5.37376928 5.76411508,0.80018074 5.76411508,0.80018074 C5.76411508,0.484443055 6.01577979,0.228482173 6.32621799,0.228482173 Z"></path>
                        </g>
                        <g id="编组-9" transform="translate(0, 9.2768)">
                            <rect id="矩形" fill="#1890FF" x="0" y="0" width="3.6" height="3.6" rx="1"></rect>
                            <rect id="矩形" fill="#FFFFFF" x="1" y="1" width="1.6" height="1.6"></rect>
                        </g>
                        <g id="编组-9备份" transform="translate(5.2, 9.2768)">
                            <rect id="矩形" fill="#1890FF" x="0" y="0" width="3.6" height="3.6" rx="1"></rect>
                            <rect id="矩形" fill="#FFFFFF" x="1" y="1" width="1.6" height="1.6"></rect>
                        </g>
                        <g id="编组-9备份-2" transform="translate(10.4, 9.2768)">
                            <rect id="矩形" fill="#1890FF" x="0" y="0" width="3.6" height="3.6" rx="1"></rect>
                            <rect id="矩形" fill="#FFFFFF" x="1" y="1" width="1.6" height="1.6"></rect>
                        </g>
                        <g id="编组-9备份-3" transform="translate(5, 0.5802)">
                            <rect id="矩形" fill="#1890FF" x="0" y="0" width="4" height="4" rx="1"></rect>
                            <rect id="矩形" fill="#FFFFFF" x="1" y="1" width="2" height="2"></rect>
                        </g>
                    </g>
</svg>