<?xml version="1.0" encoding="UTF-8"?>
<svg width="16px" height="16px" viewBox="0 0 16 16" version="1.1" xmlns="http://www.w3.org/2000/svg" xmlns:xlink="http://www.w3.org/1999/xlink">
   
                    <g transform="translate(1, 1)" fill="#1890FF" id="形状">
                        <path d="M0.7,0 C1.086596,0 1.4,0.3134005 1.4,0.7 L1.4,13.3 C1.4,13.68661 1.086596,14 0.7,14 C0.3134005,14 0,13.68661 0,13.3 L0,0.7 C0,0.3134005 0.3134005,0 0.7,0 Z M3.5,0.7 C3.5,0.3134005 3.813404,0 4.2,0 L9.8,0 C10.18661,0 10.5,0.3134005 10.5,0.7 L10.5,2.8 C10.5,3.186596 10.18661,3.5 9.8,3.5 L4.2,3.5 C3.813404,3.5 3.5,3.186596 3.5,2.8 L3.5,0.7 Z M4.9,1.4 L4.9,2.1 L9.1,2.1 L9.1,1.4 L4.9,1.4 Z M4.2,5.25 C3.813404,5.25 3.5,5.563404 3.5,5.95 L3.5,8.05 C3.5,8.43661 3.813404,8.75 4.2,8.75 L11.2,8.75 C11.58661,8.75 11.9,8.43661 11.9,8.05 L11.9,5.95 C11.9,5.563404 11.58661,5.25 11.2,5.25 L4.2,5.25 Z M4.9,7.35 L4.9,6.65 L10.5,6.65 L10.5,7.35 L4.9,7.35 Z M3.5,11.2 C3.5,10.81339 3.813404,10.5 4.2,10.5 L13.3,10.5 C13.68661,10.5 14,10.81339 14,11.2 L14,13.3 C14,13.68661 13.68661,14 13.3,14 L4.2,14 C3.813404,14 3.5,13.68661 3.5,13.3 L3.5,11.2 Z M4.9,11.9 L4.9,12.6 L12.6,12.6 L12.6,11.9 L4.9,11.9 Z"></path>
                    </g>
           
</svg>