<?xml version="1.0" standalone="no"?><!DOCTYPE svg PUBLIC "-//W3C//DTD SVG 1.1//EN" "http://www.w3.org/Graphics/SVG/1.1/DTD/svg11.dtd"><svg t="1711100290859" class="icon" viewBox="0 0 1024 1024" version="1.1" xmlns="http://www.w3.org/2000/svg" p-id="8556" xmlns:xlink="http://www.w3.org/1999/xlink" width="128" height="128"><path d="M268 329.5c-16.569 0-30-13.431-30-30 0-16.569 13.431-30 30-30h420c16.569 0 30 13.431 30 30 0 16.569-13.431 30-30 30H268zM268 542c-16.569 0-30-13.431-30-30 0-16.569 13.431-30 30-30h320c16.569 0 30 13.431 30 30 0 16.569-13.431 30-30 30H268zM268 754.5c-16.569 0-30-13.431-30-30 0-16.569 13.431-30 30-30h180c16.569 0 30 13.431 30 30 0 16.569-13.431 30-30 30H268zM770.918 838.307c-11.215-12.195-10.42-31.173 1.775-42.389 12.195-11.215 31.173-10.42 42.389 1.775l103 112c11.215 12.195 10.42 31.173-1.775 42.389-12.195 11.215-31.173 10.42-42.389-1.775l-103-112z" fill="#1890FF" p-id="8557"></path><path d="M709 871c-87.813 0-159-71.187-159-159s71.187-159 159-159 159 71.187 159 159-71.187 159-159 159z m0-60c54.676 0 99-44.324 99-99s-44.324-99-99-99-99 44.324-99 99 44.324 99 99 99z" fill="#1890FF" p-id="8558"></path><path d="M687.31 126H188c-16.569 0-30 13.431-30 30v716c0 16.569 13.431 30 30 30h387c16.569 0 30 13.431 30 30 0 16.569-13.431 30-30 30H188c-49.706 0-90-40.294-90-90V156c0-49.706 40.294-90 90-90h512.175a30 30 0 0 1 21.733 9.32l195.825 205.796a30 30 0 0 1 8.267 20.68v235.48c0 16.568-13.431 30-30 30-16.569 0-30-13.432-30-30V313.787L687.31 126z" fill="#1890FF" p-id="8559"></path></svg>