<?xml version="1.0" encoding="UTF-8"?>
<svg width="16px" height="16px" viewBox="0 0 16 16" version="1.1" xmlns="http://www.w3.org/2000/svg" xmlns:xlink="http://www.w3.org/1999/xlink">
    <title>icon_edit</title>
    <defs>
        <rect id="path-1" x="0" y="0" width="16" height="16"></rect>
        <rect id="path-3" x="0" y="0" width="14" height="14"></rect>
    </defs>
    <g id="页面-1" stroke="none" stroke-width="1" fill="none" fill-rule="evenodd">
        <g id="切图" transform="translate(-72, -456)">
            <g id="icon_edit" transform="translate(72, 456)">
                <mask id="mask-2" fill="white">
                    <use xlink:href="#path-1"></use>
                </mask>
                <g id="矩形"></g>
                <g id="编组" mask="url(#mask-2)">
                    <g transform="translate(1, 1)">
                        <mask id="mask-4" fill="white">
                            <use xlink:href="#path-3"></use>
                        </mask>
                        <g id="矩形" stroke="none" fill="none"></g>
                        <path d="M6.41666667,3.49999965 C6.73883,3.49999965 7,3.23883549 7,2.91666632 C7,2.59450299 6.73883,2.33333299 6.41666667,2.33333299 C6.41666667,2.33333299 6.41666667,3.49999965 6.41666667,3.49999965 C6.41666667,3.49999965 6.41666667,3.49999965 6.41666667,3.49999965 Z M11.6666667,7.58333299 C11.6666667,7.26115799 11.4055083,6.99999965 11.0833333,6.99999965 C10.7611583,6.99999965 10.5,7.26115799 10.5,7.58333299 C10.5,7.58333299 11.6666667,7.58333299 11.6666667,7.58333299 C11.6666667,7.58333299 11.6666667,7.58333299 11.6666667,7.58333299 Z M10.2583833,2.09170465 C10.2583833,2.09170465 10.6708583,2.50418549 10.6708583,2.50418549 C10.6708583,2.50418549 10.6708583,2.50418549 10.6708583,2.50418549 C10.6708583,2.50418549 10.2583833,2.09170465 10.2583833,2.09170465 C10.2583833,2.09170465 10.2583833,2.09170465 10.2583833,2.09170465 Z M11.9082833,3.74162215 C11.9082833,3.74162215 11.4958083,3.32914715 11.4958083,3.32914715 C11.4958083,3.32914715 11.9082833,3.74162215 11.9082833,3.74162215 C11.9082833,3.74162215 11.9082833,3.74162215 11.9082833,3.74162215 Z M5.25,7.10009965 C5.25,7.10009965 4.83751917,6.68760715 4.83751917,6.68760715 C4.72812667,6.79699965 4.66666667,6.94537632 4.66666667,7.10009965 C4.66666667,7.10009965 5.25,7.10009965 5.25,7.10009965 C5.25,7.10009965 5.25,7.10009965 5.25,7.10009965 Z M5.25,8.74999965 C5.25,8.74999965 4.66666667,8.74999965 4.66666667,8.74999965 C4.66666667,9.07217465 4.92783667,9.33333299 5.25,9.33333299 C5.25,9.33333299 5.25,8.74999965 5.25,8.74999965 C5.25,8.74999965 5.25,8.74999965 5.25,8.74999965 Z M6.89991167,8.74999965 C6.89991167,8.74999965 6.89991167,9.33333299 6.89991167,9.33333299 C7.05462333,9.33333299 7.20299417,9.27184965 7.3123925,9.16247465 C7.3123925,9.16247465 6.89991167,8.74999965 6.89991167,8.74999965 C6.89991167,8.74999965 6.89991167,8.74999965 6.89991167,8.74999965 Z M9.91666667,11.083333 C9.91666667,11.083333 3.5,11.083333 3.5,11.083333 C3.5,11.083333 3.5,12.2499997 3.5,12.2499997 C3.5,12.2499997 9.91666667,12.2499997 9.91666667,12.2499997 C9.91666667,12.2499997 9.91666667,11.083333 9.91666667,11.083333 C9.91666667,11.083333 9.91666667,11.083333 9.91666667,11.083333 Z M2.91666667,10.4999997 C2.91666667,10.4999997 2.91666667,4.08333299 2.91666667,4.08333299 C2.91666667,4.08333299 1.75,4.08333299 1.75,4.08333299 C1.75,4.08333299 1.75,10.4999997 1.75,10.4999997 C1.75,10.4999997 2.91666667,10.4999997 2.91666667,10.4999997 C2.91666667,10.4999997 2.91666667,10.4999997 2.91666667,10.4999997 Z M3.5,3.49999965 C3.5,3.49999965 6.41666667,3.49999965 6.41666667,3.49999965 C6.41666667,3.49999965 6.41666667,2.33333299 6.41666667,2.33333299 C6.41666667,2.33333299 3.5,2.33333299 3.5,2.33333299 C3.5,2.33333299 3.5,3.49999965 3.5,3.49999965 C3.5,3.49999965 3.5,3.49999965 3.5,3.49999965 Z M10.5,7.58333299 C10.5,7.58333299 10.5,10.4999997 10.5,10.4999997 C10.5,10.4999997 11.6666667,10.4999997 11.6666667,10.4999997 C11.6666667,10.4999997 11.6666667,7.58333299 11.6666667,7.58333299 C11.6666667,7.58333299 10.5,7.58333299 10.5,7.58333299 C10.5,7.58333299 10.5,7.58333299 10.5,7.58333299 Z M3.5,11.083333 C3.17783667,11.083333 2.91666667,10.8221747 2.91666667,10.4999997 C2.91666667,10.4999997 1.75,10.4999997 1.75,10.4999997 C1.75,11.4665247 2.53350417,12.2499997 3.5,12.2499997 C3.5,12.2499997 3.5,11.083333 3.5,11.083333 C3.5,11.083333 3.5,11.083333 3.5,11.083333 Z M9.91666667,12.2499997 C10.8831917,12.2499997 11.6666667,11.4665247 11.6666667,10.4999997 C11.6666667,10.4999997 10.5,10.4999997 10.5,10.4999997 C10.5,10.8221747 10.2388417,11.083333 9.91666667,11.083333 C9.91666667,11.083333 9.91666667,12.2499997 9.91666667,12.2499997 C9.91666667,12.2499997 9.91666667,12.2499997 9.91666667,12.2499997 Z M2.91666667,4.08333299 C2.91666667,3.76116965 3.17783667,3.49999965 3.5,3.49999965 C3.5,3.49999965 3.5,2.33333299 3.5,2.33333299 C2.53350417,2.33333299 1.75,3.11683715 1.75,4.08333299 C1.75,4.08333299 2.91666667,4.08333299 2.91666667,4.08333299 C2.91666667,4.08333299 2.91666667,4.08333299 2.91666667,4.08333299 Z M10.6708583,2.50418549 C10.89865,2.27638215 11.2680167,2.27638215 11.4958083,2.50418549 C11.4958083,2.50418549 12.3207583,1.6792279 12.3207583,1.6792279 C11.637325,0.995812652 10.5293417,0.995812652 9.84590833,1.6792279 C9.84590833,1.6792279 10.6708583,2.50418549 10.6708583,2.50418549 C10.6708583,2.50418549 10.6708583,2.50418549 10.6708583,2.50418549 Z M11.4958083,2.50418549 C11.7236,2.73199465 11.7236,3.10133799 11.4958083,3.32914715 C11.4958083,3.32914715 12.3207583,4.15410299 12.3207583,4.15410299 C13.0041917,3.47068715 13.0041917,2.36264549 12.3207583,1.6792279 C12.3207583,1.6792279 11.4958083,2.50418549 11.4958083,2.50418549 C11.4958083,2.50418549 11.4958083,2.50418549 11.4958083,2.50418549 Z M9.84590833,1.6792279 C9.84590833,1.6792279 4.83751917,6.68760715 4.83751917,6.68760715 C4.83751917,6.68760715 5.66248083,7.51257465 5.66248083,7.51257465 C5.66248083,7.51257465 10.6708583,2.50418549 10.6708583,2.50418549 C10.6708583,2.50418549 9.84590833,1.6792279 9.84590833,1.6792279 C9.84590833,1.6792279 9.84590833,1.6792279 9.84590833,1.6792279 Z M4.66666667,7.10009965 C4.66666667,7.10009965 4.66666667,8.74999965 4.66666667,8.74999965 C4.66666667,8.74999965 5.83333333,8.74999965 5.83333333,8.74999965 C5.83333333,8.74999965 5.83333333,7.10009965 5.83333333,7.10009965 C5.83333333,7.10009965 4.66666667,7.10009965 4.66666667,7.10009965 C4.66666667,7.10009965 4.66666667,7.10009965 4.66666667,7.10009965 Z M11.4958083,3.32914715 C11.4958083,3.32914715 6.48743667,8.33752465 6.48743667,8.33752465 C6.48743667,8.33752465 7.3123925,9.16247465 7.3123925,9.16247465 C7.3123925,9.16247465 12.3207583,4.15410299 12.3207583,4.15410299 C12.3207583,4.15410299 11.4958083,3.32914715 11.4958083,3.32914715 C11.4958083,3.32914715 11.4958083,3.32914715 11.4958083,3.32914715 Z M6.89991167,8.16666632 C6.89991167,8.16666632 5.25,8.16666632 5.25,8.16666632 C5.25,8.16666632 5.25,9.33333299 5.25,9.33333299 C5.25,9.33333299 6.89991167,9.33333299 6.89991167,9.33333299 C6.89991167,9.33333299 6.89991167,8.16666632 6.89991167,8.16666632 C6.89991167,8.16666632 6.89991167,8.16666632 6.89991167,8.16666632 Z" id="形状" stroke="none" fill="#1D2129" fill-rule="nonzero" mask="url(#mask-4)"></path>
                    </g>
                </g>
            </g>
        </g>
    </g>
</svg>