<?xml version="1.0" encoding="UTF-8"?>
<svg width="16px" height="16px" viewBox="0 0 16 16" version="1.1" xmlns="http://www.w3.org/2000/svg" xmlns:xlink="http://www.w3.org/1999/xlink">
                    <g transform="translate(1, 1.2468)" fill="#1890FF" id="形状">
                        <path d="M5.12862636,0.0231392419 C5.41997909,-0.057513549 5.72786455,0.0779526146 5.86525545,0.347247069 C6.07654091,0.761396342 6.50599091,1.0427518 7,1.0427518 C7.49400909,1.0427518 7.92349091,0.761396342 8.13476364,0.347247069 C8.27215455,0.0779526146 8.58002727,-0.057513549 8.87135455,0.0231392419 C9.96844545,0.326827433 10.9565273,0.890431796 11.7654727,1.64262634 C11.9714,1.83406361 12.0272727,2.13791452 11.9029273,2.39006725 C11.8197545,2.55874816 11.7727273,2.74889998 11.7727273,2.95184271 C11.7727273,3.65474452 12.3425273,4.22456998 13.0454545,4.22456998 C13.0454545,4.22456998 13.0631455,4.22444271 13.0631455,4.22444271 C13.3444818,4.22042089 13.5950818,4.40161907 13.6793364,4.67004361 C13.8878091,5.33375816 14,6.03939634 14,6.77001816 C14,7.25225452 13.9511273,7.72367271 13.8579,8.17949998 C13.7926091,8.49882725 13.4965727,8.71716361 13.1722182,8.6852818 C13.1307909,8.68120907 13.0884727,8.67910907 13.0454545,8.67910907 C12.3425273,8.67910907 11.7727273,9.24890907 11.7727273,9.95183634 C11.7727273,10.2648636 11.8849182,10.5500818 12.0720727,10.7718545 C12.2822,11.0209909 12.2702364,11.3886182 12.0442,11.6235 C11.2182,12.4818273 10.1743091,13.1303454 9.00034545,13.4798363 C8.66829091,13.5787273 8.31816364,13.3937363 8.21265455,13.0637182 C8.04840909,12.5499182 7.56668182,12.1791091 7,12.1791091 C6.43331818,12.1791091 5.95161,12.5499182 5.78735818,13.0637182 C5.68185545,13.3937363 5.33170909,13.5787273 4.99962273,13.4798363 C3.82570364,13.1303454 2.78181273,12.4818273 1.9558,11.6235 C1.72978273,11.3886182 1.71776182,11.0209909 1.92795273,10.7718545 C2.11507545,10.5500818 2.22727273,10.2648636 2.22727273,9.95183634 C2.22727273,9.24890907 1.65745364,8.67910907 0.954545455,8.67910907 C0.911514545,8.67910907 0.869234545,8.68120907 0.827769091,8.6852818 C0.503412,8.71716361 0.207402364,8.49882725 0.142087909,8.17949998 C0.0488520455,7.72367271 0,7.25219089 0,6.77001816 C0,6.03940271 0.112150818,5.33376452 0.320634364,4.67003725 C0.404946818,4.40161907 0.655518182,4.22042725 0.936835455,4.22444271 C0.936835455,4.22444271 0.954545455,4.22456998 0.954545455,4.22456998 C1.65745364,4.22456998 2.22727273,3.65474452 2.22727273,2.95184271 C2.22727273,2.74889998 2.18023273,2.55874816 2.09706636,2.39006725 C1.97274636,2.13791452 2.02861273,1.83406361 2.23449545,1.64262634 C3.04345364,0.890431796 4.03154818,0.326827433 5.12862636,0.0231392419 C5.12862636,0.0231392419 5.12862636,0.0231392419 5.12862636,0.0231392419 Z M3.41621,2.30228725 C3.47091182,2.50999634 3.5,2.72780452 3.5,2.95184271 C3.5,4.19709816 2.60581364,5.23350543 1.4245,5.45399907 C1.32530364,5.87606089 1.27272727,6.31656452 1.27272727,6.77001816 C1.27272727,6.99376361 1.28553091,7.21432725 1.31040636,7.43107271 C2.54775818,7.60416361 3.5,8.66682725 3.5,9.95183634 C3.5,10.3586636 3.40422727,10.7437909 3.23418455,11.0852636 C3.71146364,11.5022091 4.25818273,11.8409454 4.85437909,12.082 C5.30637545,11.3753818 6.09789091,10.9063818 7,10.9063818 C7.90210909,10.9063818 8.69361818,11.3753818 9.14562727,12.082 C9.74183636,11.8409454 10.2885364,11.5021454 10.7658091,11.0852636 C10.5957727,10.7437909 10.5,10.3586636 10.5,9.95183634 C10.5,8.66682725 11.4522545,7.60416361 12.6896,7.43107271 C12.7144818,7.21432725 12.7272727,6.99376361 12.7272727,6.77001816 C12.7272727,6.31656452 12.6747091,5.87606725 12.5755,5.45399907 C11.3942182,5.23350543 10.5,4.1970918 10.5,2.95184271 C10.5,2.72780452 10.5290818,2.50999634 10.5838091,2.30228725 C10.1015727,1.91492634 9.5557,1.60427907 8.96464545,1.38843089 C8.49831818,1.95393543 7.7917,2.31547907 7,2.31547907 C6.20828727,2.31547907 5.50170091,1.95393543 5.03533545,1.38843089 C4.44427455,1.60427907 3.89840182,1.91492634 3.41621,2.30228725 C3.41621,2.30228725 3.41621,2.30228725 3.41621,2.30228725 Z M4.13636364,6.77001816 C4.13636364,5.18847634 5.41845818,3.90638816 7,3.90638816 C8.58155455,3.90638816 9.86363636,5.18847634 9.86363636,6.77001816 C9.86363636,8.35157271 8.58155455,9.63365452 7,9.63365452 C5.41845818,9.63365452 4.13636364,8.35157271 4.13636364,6.77001816 C4.13636364,6.77001816 4.13636364,6.77001816 4.13636364,6.77001816 Z M7,5.17911543 C6.12136,5.17911543 5.40909091,5.89138452 5.40909091,6.77001816 C5.40909091,7.64864543 6.12136,8.36092725 7,8.36092725 C7.87862727,8.36092725 8.59090909,7.64864543 8.59090909,6.77001816 C8.59090909,5.89138452 7.87862727,5.17911543 7,5.17911543 C7,5.17911543 7,5.17911543 7,5.17911543 Z"></path>
                    </g>
</svg>