<svg t="1719455717709" class="icon" viewBox="0 0 1024 1024" version="1.1" xmlns="http://www.w3.org/2000/svg" p-id="3802" width="128" height="128"><path d="M625.728 57.472c16.512 0 30.208 4.992 42.24 14.848l5.888 5.312 208.96 207.04c12.224 11.2 19.328 24.96 21.12 41.024l0.448 8.256v232.32a287.104 287.104 0 0 0-76.8-39.424V374.016H687.36A96 96 0 0 1 592 287.36l-0.448-9.216V134.208l-339.328 0.064c-27.84 0-48.384 18.176-51.392 43.904l-0.384 6.528v653.824c0 27.136 18.624 47.616 44.992 50.56l6.784 0.384h210.048c9.024 27.712 22.144 53.568 38.656 76.864H252.16c-68.8 0-123.392-50.816-128.192-118.08l-0.384-9.728V184.704c0-68.48 51.2-122.112 118.784-126.912L252.16 57.472h373.568z m271.232 593.152a37.44 37.44 0 0 1 52.224 0 35.712 35.712 0 0 1 0 51.2l-252.352 247.552a37.44 37.44 0 0 1-52.224 0L522.88 829.888a35.712 35.712 0 0 1 0-51.2 37.44 37.44 0 0 1 52.224 0l95.68 93.888zM393.088 704a38.4 38.4 0 0 1 0 76.8H294.4a38.4 38.4 0 0 1 0-76.8h98.688zM665.6 512a38.4 38.4 0 0 1 0 76.8H294.4a38.4 38.4 0 0 1 0-76.8h371.2z m-192-192a38.4 38.4 0 1 1 0 76.8H294.4a38.4 38.4 0 1 1 0-76.8h179.2z m325.76-9.984L655.36 167.488v110.592a32 32 0 0 0 26.24 31.488l5.76 0.512h111.872z" fill="#ffffff" p-id="3803"></path></svg>